<?xml version="1.0" encoding="utf-8"?>
<!-- Generator: Adobe Illustrator 18.1.0, SVG Export Plug-In . SVG Version: 6.00 Build 0)  -->
<!DOCTYPE svg PUBLIC "-//W3C//DTD SVG 1.1//EN" "http://www.w3.org/Graphics/SVG/1.1/DTD/svg11.dtd">
<svg version="1.1" id="Layer_1" xmlns="http://www.w3.org/2000/svg" xmlns:xlink="http://www.w3.org/1999/xlink" x="0px" y="0px"
	 viewBox="0 0 1040.4 701.4" enable-background="new 0 0 1040.4 701.4" xml:space="preserve">
<g opacity="0.2">
	<g>
		<line fill="none" stroke="#FFFFFF" stroke-miterlimit="10" x1="-4.5" y1="371.4" x2="-2.3" y2="422.4"/>
		<line fill="none" stroke="#FFFFFF" stroke-miterlimit="10" x1="29.9" y1="379.4" x2="-0.7" y2="422.8"/>
		<line fill="none" stroke="#FFFFFF" stroke-miterlimit="10" x1="29.2" y1="376.9" x2="-2.5" y2="369.5"/>
		<line fill="none" stroke="#FFFFFF" stroke-miterlimit="10" x1="37.7" y1="342.8" x2="-2.7" y2="367.8"/>
		<line fill="none" stroke="#FFFFFF" stroke-miterlimit="10" x1="32" y1="374.7" x2="39.1" y2="344.3"/>
		<line fill="none" stroke="#FFFFFF" stroke-miterlimit="10" x1="33.3" y1="376.1" x2="76.8" y2="348.3"/>
		<line fill="none" stroke="#FFFFFF" stroke-miterlimit="10" x1="76.5" y1="346.7" x2="42" y2="341.9"/>
		<path fill="none" stroke="#FFFFFF" stroke-miterlimit="10" d="M-18.9,390.2"/>
		<g>
			<path fill="#FFFFFF" d="M-4.7,367c0.5,0,1,0.2,1.4,0.6c0.8,0.8,0.7,2.1-0.1,2.8c-0.4,0.4-0.9,0.6-1.4,0.6c-0.5,0-1-0.2-1.4-0.6
				c-0.8-0.8-0.7-2.1,0.1-2.8C-5.6,367.2-5.1,367-4.7,367 M-4.7,366c-0.8,0-1.5,0.3-2.1,0.8c-0.6,0.6-0.9,1.3-0.9,2.1
				c0,0.8,0.3,1.6,0.8,2.1c0.6,0.6,1.3,0.9,2.2,0.9c0.8,0,1.5-0.3,2.1-0.8c1.2-1.1,1.2-3,0.1-4.2C-3.1,366.3-3.8,366-4.7,366
				L-4.7,366z"/>
		</g>
		<g>
			<path fill="#FFFFFF" d="M39.7,339.6c0.5,0,1,0.2,1.4,0.6c0.8,0.8,0.7,2.1-0.1,2.8c-0.4,0.4-0.9,0.6-1.4,0.6c-0.5,0-1-0.2-1.4-0.6
				c-0.8-0.8-0.7-2.1,0.1-2.8C38.7,339.8,39.2,339.6,39.7,339.6 M39.7,338.6c-0.8,0-1.5,0.3-2.1,0.8c-0.6,0.6-0.9,1.3-0.9,2.1
				c0,0.8,0.3,1.6,0.8,2.1c0.6,0.6,1.3,0.9,2.2,0.9c0.8,0,1.5-0.3,2.1-0.8c0.6-0.6,0.9-1.3,0.9-2.1c0-0.8-0.3-1.6-0.8-2.1
				C41.3,338.9,40.6,338.6,39.7,338.6L39.7,338.6z"/>
		</g>
		<g>
			<path fill="#FFFFFF" d="M78.5,345.3c0.5,0,1,0.2,1.4,0.6c0.8,0.8,0.7,2.1-0.1,2.8c-0.4,0.4-0.9,0.6-1.4,0.6c-0.5,0-1-0.2-1.4-0.6
				c-0.8-0.8-0.7-2.1,0.1-2.8C77.5,345.5,78,345.3,78.5,345.3 M78.5,344.3c-0.8,0-1.5,0.3-2.1,0.8c-1.2,1.1-1.2,3-0.1,4.2
				c0.6,0.6,1.3,0.9,2.2,0.9c0.8,0,1.5-0.3,2.1-0.8c0.6-0.6,0.9-1.3,0.9-2.1c0-0.8-0.3-1.6-0.8-2.1
				C80.1,344.6,79.4,344.3,78.5,344.3L78.5,344.3z"/>
		</g>
		<g>
			<path fill="#FFFFFF" d="M-2.2,422.8c0.5,0,1,0.2,1.4,0.6c0.8,0.8,0.7,2.1-0.1,2.8c-0.4,0.4-0.9,0.6-1.4,0.6c-0.5,0-1-0.2-1.4-0.6
				c-0.8-0.8-0.7-2.1,0.1-2.8C-3.2,423-2.7,422.8-2.2,422.8 M-2.2,421.8c-0.8,0-1.5,0.3-2.1,0.8c-0.6,0.6-0.9,1.3-0.9,2.1
				c0,0.8,0.3,1.6,0.8,2.1c0.6,0.6,1.3,0.9,2.2,0.9c0.8,0,1.5-0.3,2.1-0.8c1.2-1.1,1.2-3,0.1-4.2C-0.6,422.2-1.3,421.8-2.2,421.8
				L-2.2,421.8z"/>
		</g>
		<g>
			<path fill="#FFFFFF" d="M31.3,375.4c0.5,0,1,0.2,1.4,0.6c0.8,0.8,0.7,2.1-0.1,2.8c-0.4,0.4-0.9,0.6-1.4,0.6c-0.5,0-1-0.2-1.4-0.6
				c-0.8-0.8-0.7-2.1,0.1-2.8C30.3,375.6,30.8,375.4,31.3,375.4 M31.3,374.4c-0.8,0-1.5,0.3-2.1,0.8c-0.6,0.6-0.9,1.3-0.9,2.1
				c0,0.8,0.3,1.6,0.8,2.1c0.6,0.6,1.3,0.9,2.2,0.9c0.8,0,1.5-0.3,2.1-0.8c0.6-0.6,0.9-1.3,0.9-2.1s-0.3-1.6-0.8-2.1
				C32.9,374.7,32.1,374.4,31.3,374.4L31.3,374.4z"/>
		</g>
	</g>
	<g>
		<line fill="none" stroke="#FFFFFF" stroke-miterlimit="10" x1="802.9" y1="181" x2="814.5" y2="131.4"/>
		<line fill="none" stroke="#FFFFFF" stroke-miterlimit="10" x1="771.9" y1="164" x2="813.1" y2="130.6"/>
		<line fill="none" stroke="#FFFFFF" stroke-miterlimit="10" x1="772" y1="166.7" x2="800.4" y2="182.3"/>
		<line fill="none" stroke="#FFFFFF" stroke-miterlimit="10" x1="754.6" y1="197.2" x2="800" y2="184.1"/>
		<line fill="none" stroke="#FFFFFF" stroke-miterlimit="10" x1="768.8" y1="167.7" x2="753.4" y2="195.7"/>
		<line fill="none" stroke="#FFFFFF" stroke-miterlimit="10" x1="767.6" y1="166.4" x2="718.5" y2="181.3"/>
		<line fill="none" stroke="#FFFFFF" stroke-miterlimit="10" x1="718.1" y1="182.9" x2="750.2" y2="197"/>
		<path fill="none" stroke="#FFFFFF" stroke-miterlimit="10" d="M821.8,166.8"/>
		<g>
			<path fill="#FFFFFF" d="M802.4,181.4c0.7,0,1.4,0.4,1.8,1.1c0.5,1,0.2,2.2-0.8,2.7c-0.3,0.2-0.6,0.2-0.9,0.2
				c-0.7,0-1.4-0.4-1.8-1.1c-0.5-1-0.2-2.2,0.8-2.7C801.7,181.5,802,181.4,802.4,181.4 M802.4,180.4c-0.5,0-1,0.1-1.4,0.4
				c-1.5,0.8-2,2.6-1.2,4.1c0.5,1,1.5,1.6,2.6,1.6c0.5,0,1-0.1,1.4-0.4c0.7-0.4,1.2-1,1.5-1.8s0.2-1.6-0.2-2.3
				C804.5,181,803.5,180.4,802.4,180.4L802.4,180.4z"/>
		</g>
		<g>
			<path fill="#FFFFFF" d="M752.2,195.8c0.7,0,1.4,0.4,1.8,1.1c0.5,1,0.2,2.2-0.8,2.7c-0.3,0.2-0.6,0.2-0.9,0.2
				c-0.7,0-1.4-0.4-1.8-1.1c-0.5-1-0.2-2.2,0.8-2.7C751.6,195.9,751.9,195.8,752.2,195.8 M752.2,194.8c-0.5,0-1,0.1-1.4,0.4
				c-1.5,0.8-2,2.6-1.2,4.1c0.5,1,1.5,1.6,2.6,1.6c0.5,0,1-0.1,1.4-0.4c0.7-0.4,1.2-1,1.5-1.8s0.2-1.6-0.2-2.3
				C754.3,195.4,753.3,194.8,752.2,194.8L752.2,194.8z"/>
		</g>
		<g>
			<path fill="#FFFFFF" d="M716.4,179.9c0.7,0,1.4,0.4,1.8,1.1c0.5,1,0.2,2.2-0.8,2.7c-0.3,0.2-0.6,0.2-0.9,0.2
				c-0.7,0-1.4-0.4-1.8-1.1c-0.5-1-0.2-2.2,0.8-2.7C715.8,179.9,716.1,179.9,716.4,179.9 M716.4,178.9c-0.5,0-1,0.1-1.4,0.4
				c-0.7,0.4-1.2,1-1.5,1.8s-0.2,1.6,0.2,2.3c0.5,1,1.5,1.6,2.6,1.6c0.5,0,1-0.1,1.4-0.4c1.5-0.8,2-2.6,1.2-4.1
				C718.5,179.5,717.5,178.9,716.4,178.9L716.4,178.9z"/>
		</g>
		<g>
			<path fill="#FFFFFF" d="M815,127c0.7,0,1.4,0.4,1.8,1.1c0.5,1,0.2,2.2-0.8,2.7c-0.3,0.2-0.6,0.2-0.9,0.2c-0.7,0-1.4-0.4-1.8-1.1
				c-0.5-1-0.2-2.2,0.8-2.7C814.4,127.1,814.7,127,815,127 M815,126c-0.5,0-1,0.1-1.4,0.4c-1.5,0.8-2,2.6-1.2,4.1
				c0.5,1,1.5,1.6,2.6,1.6c0.5,0,1-0.1,1.4-0.4c0.7-0.4,1.2-1,1.5-1.8s0.2-1.6-0.2-2.3C817.1,126.6,816.1,126,815,126L815,126z"/>
		</g>
		<g>
			<path fill="#FFFFFF" d="M770,163.6c0.7,0,1.4,0.4,1.8,1.1c0.5,1,0.2,2.2-0.8,2.7c-0.3,0.2-0.6,0.2-0.9,0.2
				c-0.7,0-1.4-0.4-1.8-1.1c-0.5-1-0.2-2.2,0.8-2.7C769.3,163.7,769.7,163.6,770,163.6 M770,162.6c-0.5,0-1,0.1-1.4,0.4
				c-0.7,0.4-1.2,1-1.5,1.8s-0.2,1.6,0.2,2.3c0.5,1,1.5,1.6,2.6,1.6c0.5,0,1-0.1,1.4-0.4c1.5-0.8,2-2.6,1.2-4.1
				C772.1,163.2,771.1,162.6,770,162.6L770,162.6z"/>
		</g>
	</g>
	<g>
		<line fill="none" stroke="#FFFFFF" stroke-miterlimit="10" x1="894.2" y1="151" x2="944.9" y2="144.9"/>
		<line fill="none" stroke="#FFFFFF" stroke-miterlimit="10" x1="899.5" y1="115.9" x2="945.4" y2="143.5"/>
		<line fill="none" stroke="#FFFFFF" stroke-miterlimit="10" x1="897.1" y1="117.6" x2="892.3" y2="148.4"/>
		<line fill="none" stroke="#FFFFFF" stroke-miterlimit="10" x1="862.6" y1="111.1" x2="890.4" y2="149.3"/>
		<line fill="none" stroke="#FFFFFF" stroke-miterlimit="10" x1="895.2" y1="114.4" x2="863.5" y2="109.4"/>
		<line fill="none" stroke="#FFFFFF" stroke-miterlimit="10" x1="896" y1="112.8" x2="865.2" y2="71.7"/>
		<line fill="none" stroke="#FFFFFF" stroke-miterlimit="10" x1="863.5" y1="72.3" x2="861.3" y2="106.5"/>
		<path fill="none" stroke="#FFFFFF" stroke-miterlimit="10" d="M914.1,163.9"/>
		<g>
			<path fill="#FFFFFF" d="M891.8,149.3c0.5,0,1,0.2,1.3,0.5c0.8,0.7,0.9,2,0.2,2.8c-0.4,0.4-0.9,0.7-1.5,0.7c-0.5,0-1-0.2-1.3-0.5
				c-0.8-0.7-0.9-2-0.2-2.8C890.7,149.5,891.3,149.3,891.8,149.3 M891.8,148.3c-0.9,0-1.7,0.4-2.2,1c-1.1,1.2-1,3.1,0.2,4.2
				c0.6,0.5,1.3,0.8,2,0.8c0.9,0,1.7-0.4,2.2-1c0.5-0.6,0.8-1.4,0.8-2.2c0-0.8-0.4-1.5-1-2.1C893.3,148.6,892.6,148.3,891.8,148.3
				L891.8,148.3z"/>
		</g>
		<g>
			<path fill="#FFFFFF" d="M861.2,107.1c0.5,0,1,0.2,1.3,0.5c0.8,0.7,0.9,2,0.2,2.8c-0.4,0.4-0.9,0.7-1.5,0.7c-0.5,0-1-0.2-1.3-0.5
				c-0.8-0.7-0.9-2-0.2-2.8C860.1,107.3,860.6,107.1,861.2,107.1 M861.2,106.1c-0.9,0-1.7,0.4-2.2,1c-0.5,0.6-0.8,1.4-0.8,2.2
				c0,0.8,0.4,1.5,1,2.1c0.6,0.5,1.3,0.8,2,0.8c0.9,0,1.7-0.4,2.2-1c0.5-0.6,0.8-1.4,0.8-2.2s-0.4-1.5-1-2.1
				C862.6,106.3,861.9,106.1,861.2,106.1L861.2,106.1z"/>
		</g>
		<g>
			<path fill="#FFFFFF" d="M864,68c0.5,0,1,0.2,1.3,0.5c0.8,0.7,0.9,2,0.2,2.8c-0.4,0.4-0.9,0.7-1.5,0.7c-0.5,0-1-0.2-1.3-0.5
				c-0.8-0.7-0.9-2-0.2-2.8C862.9,68.2,863.4,68,864,68 M864,67c-0.9,0-1.7,0.4-2.2,1c-0.5,0.6-0.8,1.4-0.8,2.2c0,0.8,0.4,1.5,1,2.1
				c0.6,0.5,1.3,0.8,2,0.8c0.9,0,1.7-0.4,2.2-1c0.5-0.6,0.8-1.4,0.8-2.2c0-0.8-0.4-1.5-1-2.1C865.4,67.2,864.7,67,864,67L864,67z"/>
		</g>
		<g>
			<path fill="#FFFFFF" d="M947.3,142.6c0.5,0,1,0.2,1.3,0.5c0.8,0.7,0.9,2,0.2,2.8c-0.4,0.4-0.9,0.7-1.5,0.7c-0.5,0-1-0.2-1.3-0.5
				c-0.8-0.7-0.9-2-0.2-2.8C946.2,142.8,946.8,142.6,947.3,142.6 M947.3,141.6c-0.9,0-1.7,0.4-2.2,1c-0.5,0.6-0.8,1.4-0.8,2.2
				c0,0.8,0.4,1.5,1,2.1c0.6,0.5,1.3,0.8,2,0.8c0.9,0,1.7-0.4,2.2-1c0.5-0.6,0.8-1.4,0.8-2.2c0-0.8-0.4-1.5-1-2.1
				C948.8,141.9,948.1,141.6,947.3,141.6L947.3,141.6z"/>
		</g>
		<g>
			<path fill="#FFFFFF" d="M897.5,112.8c0.5,0,1,0.2,1.3,0.5c0.8,0.7,0.9,2,0.2,2.8c-0.4,0.4-0.9,0.7-1.5,0.7c-0.5,0-1-0.2-1.3-0.5
				c-0.8-0.7-0.9-2-0.2-2.8C896.4,113,897,112.8,897.5,112.8 M897.5,111.8c-0.9,0-1.7,0.4-2.2,1c-0.5,0.6-0.8,1.4-0.8,2.2
				c0,0.8,0.4,1.5,1,2.1c0.6,0.5,1.3,0.8,2,0.8c0.9,0,1.7-0.4,2.2-1c0.5-0.6,0.8-1.4,0.8-2.2c0-0.8-0.4-1.5-1-2.1
				C899,112.1,898.3,111.8,897.5,111.8L897.5,111.8z"/>
		</g>
	</g>
	<g>
		<line fill="none" stroke="#FFFFFF" stroke-miterlimit="10" x1="189.9" y1="494.9" x2="213.4" y2="473"/>
		<line fill="none" stroke="#FFFFFF" stroke-miterlimit="10" x1="213.4" y1="521.1" x2="215.1" y2="473.6"/>
		<line fill="none" stroke="#FFFFFF" stroke-miterlimit="10" x1="190" y1="498.5" x2="211.5" y2="521.5"/>
		<line fill="none" stroke="#FFFFFF" stroke-miterlimit="10" x1="188.1" y1="499.4" x2="187.2" y2="550.1"/>
		<line fill="none" stroke="#FFFFFF" stroke-miterlimit="10" x1="188.9" y1="550.8" x2="211.5" y2="525.5"/>
		<g>
			<path fill="#FFFFFF" d="M215.1,469.3c1,0,1.8,0.7,2,1.6c0.2,1.1-0.5,2.1-1.6,2.3c-0.1,0-0.2,0-0.4,0c-1,0-1.8-0.7-2-1.6
				c-0.2-1.1,0.5-2.1,1.6-2.3C214.9,469.3,215,469.3,215.1,469.3 M215.1,468.3c-0.2,0-0.4,0-0.5,0c-1.6,0.3-2.7,1.9-2.4,3.5
				c0.3,1.4,1.5,2.5,3,2.5c0.2,0,0.4,0,0.5,0c0.8-0.1,1.5-0.6,1.9-1.2s0.6-1.5,0.5-2.2C217.8,469.3,216.6,468.3,215.1,468.3
				L215.1,468.3z"/>
		</g>
		<g>
			<path fill="#FFFFFF" d="M213.3,521.4c1,0,1.8,0.7,2,1.6c0.2,1.1-0.5,2.1-1.6,2.3c-0.1,0-0.2,0-0.4,0c-1,0-1.8-0.7-2-1.6
				c-0.2-1.1,0.5-2.1,1.6-2.3C213.1,521.5,213.2,521.4,213.3,521.4 M213.3,520.4c-0.2,0-0.4,0-0.5,0c-1.6,0.3-2.7,1.9-2.4,3.5
				c0.3,1.4,1.5,2.5,3,2.5c0.2,0,0.4,0,0.5,0c0.8-0.1,1.5-0.6,1.9-1.2c0.5-0.7,0.6-1.5,0.5-2.2C216,521.5,214.8,520.4,213.3,520.4
				L213.3,520.4z"/>
		</g>
		<g>
			<path fill="#FFFFFF" d="M187,550.5c1,0,1.8,0.7,2,1.6c0.2,1.1-0.5,2.1-1.6,2.3c-0.1,0-0.2,0-0.4,0c-1,0-1.8-0.7-2-1.6
				c-0.2-1.1,0.5-2.1,1.6-2.3C186.8,550.5,186.9,550.5,187,550.5 M187,549.5c-0.2,0-0.4,0-0.5,0c-0.8,0.1-1.5,0.6-1.9,1.2
				s-0.6,1.5-0.5,2.2c0.3,1.4,1.5,2.5,3,2.5c0.2,0,0.4,0,0.5,0c1.6-0.3,2.7-1.9,2.4-3.5C189.7,550.6,188.5,549.5,187,549.5
				L187,549.5z"/>
		</g>
		<g>
			<path fill="#FFFFFF" d="M188.2,494.6c1,0,1.8,0.7,2,1.6c0.2,1.1-0.5,2.1-1.6,2.3c-0.1,0-0.2,0-0.4,0c-1,0-1.8-0.7-2-1.6
				c-0.2-1.1,0.5-2.1,1.6-2.3C188,494.6,188.1,494.6,188.2,494.6 M188.2,493.6c-0.2,0-0.4,0-0.5,0c-1.6,0.3-2.7,1.9-2.4,3.5
				c0.3,1.4,1.5,2.5,3,2.5c0.2,0,0.4,0,0.5,0c1.6-0.3,2.7-1.9,2.4-3.5C190.9,494.6,189.6,493.6,188.2,493.6L188.2,493.6z"/>
		</g>
	</g>
	<g>
		<line fill="none" stroke="#FFFFFF" stroke-miterlimit="10" x1="649.8" y1="74.4" x2="674.5" y2="53.6"/>
		<line fill="none" stroke="#FFFFFF" stroke-miterlimit="10" x1="671.9" y1="102" x2="676.1" y2="54.1"/>
		<line fill="none" stroke="#FFFFFF" stroke-miterlimit="10" x1="649.3" y1="77.4" x2="670.4" y2="102.6"/>
		<line fill="none" stroke="#FFFFFF" stroke-miterlimit="10" x1="647.3" y1="77.9" x2="630.9" y2="126.2"/>
		<line fill="none" stroke="#FFFFFF" stroke-miterlimit="10" x1="631.9" y1="127.9" x2="669.7" y2="105.3"/>
		<g>
			<path fill="#FFFFFF" d="M676.3,50.1c1,0,1.9,0.7,2,1.8c0.1,1.1-0.6,2.1-1.7,2.2c-0.1,0-0.2,0-0.3,0c-1,0-1.9-0.7-2-1.8
				c-0.1-1.1,0.6-2.1,1.7-2.2C676.1,50.1,676.2,50.1,676.3,50.1 M676.3,49.1c-0.1,0-0.2,0-0.4,0c-0.8,0.1-1.5,0.5-2,1.1
				s-0.7,1.4-0.6,2.2c0.2,1.5,1.5,2.6,3,2.6c0.1,0,0.2,0,0.4,0c1.6-0.2,2.8-1.7,2.6-3.3C679.1,50.2,677.8,49.1,676.3,49.1
				L676.3,49.1z"/>
		</g>
		<g>
			<path fill="#FFFFFF" d="M671.7,102.1c1,0,1.9,0.7,2,1.8c0.1,1.1-0.6,2.1-1.7,2.2c-0.1,0-0.2,0-0.3,0c-1,0-1.9-0.7-2-1.8
				c-0.1-1.1,0.6-2.1,1.7-2.2C671.5,102.1,671.6,102.1,671.7,102.1 M671.7,101.1c-0.1,0-0.2,0-0.4,0c-1.6,0.2-2.8,1.7-2.6,3.3
				c0.2,1.5,1.5,2.6,3,2.6c0.1,0,0.2,0,0.4,0c0.8-0.1,1.5-0.5,2-1.1c0.5-0.6,0.7-1.4,0.6-2.2C674.5,102.2,673.2,101.1,671.7,101.1
				L671.7,101.1z"/>
		</g>
		<g>
			<path fill="#FFFFFF" d="M629.9,126.7c1,0,1.9,0.7,2,1.8c0.1,1.1-0.6,2.1-1.7,2.2c-0.1,0-0.2,0-0.3,0c-1,0-1.9-0.7-2-1.8
				c-0.1-1.1,0.6-2.1,1.7-2.2C629.7,126.7,629.8,126.7,629.9,126.7 M629.9,125.7c-0.1,0-0.2,0-0.4,0c-0.8,0.1-1.5,0.5-2,1.1
				c-0.5,0.6-0.7,1.4-0.6,2.2c0.2,1.5,1.5,2.6,3,2.6c0.1,0,0.2,0,0.4,0c0.8-0.1,1.5-0.5,2-1.1c0.5-0.6,0.7-1.4,0.6-2.2
				C632.7,126.9,631.4,125.7,629.9,125.7L629.9,125.7z"/>
		</g>
		<g>
			<path fill="#FFFFFF" d="M648,73.9c1,0,1.9,0.7,2,1.8c0.1,1.1-0.6,2.1-1.7,2.2c-0.1,0-0.2,0-0.3,0c-1,0-1.9-0.7-2-1.8
				c-0.1-1.1,0.6-2.1,1.7-2.2C647.9,73.9,647.9,73.9,648,73.9 M648,72.9c-0.1,0-0.2,0-0.4,0c-1.6,0.2-2.8,1.7-2.6,3.3
				c0.2,1.5,1.5,2.6,3,2.6c0.1,0,0.2,0,0.4,0c1.6-0.2,2.8-1.7,2.6-3.3C650.8,74,649.5,72.9,648,72.9L648,72.9z"/>
		</g>
	</g>
	<g>
		<line fill="none" stroke="#FFFFFF" stroke-miterlimit="10" x1="295.2" y1="587.2" x2="311.8" y2="538.3"/>
		<line fill="none" stroke="#FFFFFF" stroke-miterlimit="10" x1="266.1" y1="567" x2="310.5" y2="537.6"/>
		<line fill="none" stroke="#FFFFFF" stroke-miterlimit="10" x1="266.1" y1="569.7" x2="292.5" y2="587.9"/>
		<line fill="none" stroke="#FFFFFF" stroke-miterlimit="10" x1="245.6" y1="598.2" x2="292.1" y2="589.7"/>
		<line fill="none" stroke="#FFFFFF" stroke-miterlimit="10" x1="262.9" y1="570.1" x2="244.5" y2="596.9"/>
		<line fill="none" stroke="#FFFFFF" stroke-miterlimit="10" x1="261.7" y1="568.8" x2="211.2" y2="578.9"/>
		<line fill="none" stroke="#FFFFFF" stroke-miterlimit="10" x1="211.1" y1="580.7" x2="240.9" y2="597.4"/>
		<path fill="none" stroke="#FFFFFF" stroke-miterlimit="10" d="M315.5,574.6"/>
		<g>
			<path fill="#FFFFFF" d="M294.5,587.2c0.8,0,1.5,0.5,1.8,1.2c0.4,1-0.1,2.2-1.1,2.6c-0.3,0.1-0.5,0.2-0.8,0.2
				c-0.8,0-1.5-0.5-1.8-1.2c-0.4-1,0.1-2.2,1.1-2.6C294,587.3,294.3,587.2,294.5,587.2 M294.5,586.2c-0.4,0-0.8,0.1-1.2,0.2
				c-1.5,0.6-2.3,2.4-1.6,3.9c0.5,1.1,1.6,1.8,2.8,1.8c0.4,0,0.8-0.1,1.2-0.2c0.7-0.3,1.3-0.9,1.6-1.6c0.3-0.7,0.3-1.6,0-2.3
				C296.8,586.9,295.8,586.2,294.5,586.2L294.5,586.2z"/>
		</g>
		<g>
			<path fill="#FFFFFF" d="M243.2,596.7c0.8,0,1.5,0.5,1.8,1.2c0.4,1-0.1,2.2-1.1,2.6c-0.3,0.1-0.5,0.2-0.8,0.2
				c-0.8,0-1.5-0.5-1.8-1.2c-0.4-1,0.1-2.2,1.1-2.6C242.7,596.7,243,596.7,243.2,596.7 M243.2,595.7c-0.4,0-0.8,0.1-1.2,0.2
				c-1.5,0.6-2.3,2.4-1.6,3.9c0.5,1.1,1.6,1.8,2.8,1.8c0.4,0,0.8-0.1,1.2-0.2c1.5-0.6,2.3-2.4,1.6-3.9
				C245.5,596.4,244.4,595.7,243.2,595.7L243.2,595.7z"/>
		</g>
		<g>
			<path fill="#FFFFFF" d="M209.2,577.3c0.8,0,1.5,0.5,1.8,1.2c0.4,1-0.1,2.2-1.1,2.6c-0.3,0.1-0.5,0.2-0.8,0.2
				c-0.8,0-1.5-0.5-1.8-1.2c-0.4-1,0.1-2.2,1.1-2.6C208.6,577.3,208.9,577.3,209.2,577.3 M209.2,576.3c-0.4,0-0.8,0.1-1.2,0.2
				c-1.5,0.6-2.3,2.4-1.6,3.9c0.5,1.1,1.6,1.8,2.8,1.8c0.4,0,0.8-0.1,1.2-0.2c1.5-0.6,2.3-2.4,1.6-3.9
				C211.5,577,210.4,576.3,209.2,576.3L209.2,576.3z"/>
		</g>
		<g>
			<path fill="#FFFFFF" d="M312.5,534.3c0.8,0,1.5,0.5,1.8,1.2c0.4,1-0.1,2.2-1.1,2.6c-0.3,0.1-0.5,0.2-0.8,0.2
				c-0.8,0-1.5-0.5-1.8-1.2c-0.4-1,0.1-2.2,1.1-2.6C312,534.3,312.2,534.3,312.5,534.3 M312.5,533.3c-0.4,0-0.8,0.1-1.2,0.2
				c-1.5,0.6-2.3,2.4-1.6,3.9c0.5,1.1,1.6,1.8,2.8,1.8c0.4,0,0.8-0.1,1.2-0.2c0.7-0.3,1.3-0.9,1.6-1.6c0.3-0.7,0.3-1.6,0-2.3
				C314.8,534,313.7,533.3,312.5,533.3L312.5,533.3z"/>
		</g>
		<g>
			<path fill="#FFFFFF" d="M264.1,566.3c0.8,0,1.5,0.5,1.8,1.2c0.4,1-0.1,2.2-1.1,2.6c-0.3,0.1-0.5,0.2-0.8,0.2
				c-0.8,0-1.5-0.5-1.8-1.2c-0.4-1,0.1-2.2,1.1-2.6C263.6,566.4,263.8,566.3,264.1,566.3 M264.1,565.3c-0.4,0-0.8,0.1-1.2,0.2
				c-0.7,0.3-1.3,0.9-1.6,1.6c-0.3,0.7-0.3,1.6,0,2.3c0.5,1.1,1.6,1.8,2.8,1.8c0.4,0,0.8-0.1,1.2-0.2c0.7-0.3,1.3-0.9,1.6-1.6
				c0.3-0.7,0.3-1.6,0-2.3C266.4,566.1,265.3,565.3,264.1,565.3L264.1,565.3z"/>
		</g>
	</g>
	<g>
		<line fill="none" stroke="#FFFFFF" stroke-miterlimit="10" x1="141.1" y1="402.8" x2="130.9" y2="456.8"/>
		<line fill="none" stroke="#FFFFFF" stroke-miterlimit="10" x1="159.8" y1="429.8" x2="132.2" y2="457.4"/>
		<line fill="none" stroke="#FFFFFF" stroke-miterlimit="10" x1="160.2" y1="426.2" x2="142.8" y2="402.4"/>
		<line fill="none" stroke="#FFFFFF" stroke-miterlimit="10" x1="180.6" y1="398.3" x2="143.9" y2="400.4"/>
		<line fill="none" stroke="#FFFFFF" stroke-miterlimit="10" x1="162.8" y1="426.2" x2="181.7" y2="400.1"/>
		<line fill="none" stroke="#FFFFFF" stroke-miterlimit="10" x1="163.9" y1="427.5" x2="211.6" y2="415.8"/>
		<line fill="none" stroke="#FFFFFF" stroke-miterlimit="10" x1="211.8" y1="414" x2="185.2" y2="399.4"/>
		<path fill="none" stroke="#FFFFFF" stroke-miterlimit="10" d="M117.2,420.7"/>
		<g>
			<path fill="#FFFFFF" d="M141.5,398.5c0.8,0,1.6,0.5,1.9,1.3c0.4,1-0.1,2.2-1.1,2.6c-0.2,0.1-0.5,0.1-0.7,0.1
				c-0.8,0-1.6-0.5-1.9-1.3c-0.4-1,0.1-2.2,1.1-2.6C141,398.6,141.3,398.5,141.5,398.5 M141.5,397.5c-0.4,0-0.7,0.1-1.1,0.2
				c-1.5,0.6-2.3,2.3-1.7,3.9c0.5,1.2,1.6,1.9,2.8,1.9c0.4,0,0.7-0.1,1.1-0.2c0.7-0.3,1.3-0.9,1.7-1.6c0.3-0.7,0.3-1.5,0-2.3
				C143.8,398.3,142.7,397.5,141.5,397.5L141.5,397.5z"/>
		</g>
		<g>
			<path fill="#FFFFFF" d="M183,396.2c0.8,0,1.6,0.5,1.9,1.3c0.4,1-0.1,2.2-1.1,2.6c-0.2,0.1-0.5,0.1-0.7,0.1
				c-0.8,0-1.6-0.5-1.9-1.3c-0.4-1,0.1-2.2,1.1-2.6C182.5,396.2,182.8,396.2,183,396.2 M183,395.2c-0.4,0-0.7,0.1-1.1,0.2
				c-1.5,0.6-2.3,2.3-1.7,3.9c0.5,1.2,1.6,1.9,2.8,1.9c0.4,0,0.7-0.1,1.1-0.2c1.5-0.6,2.3-2.3,1.7-3.9
				C185.3,395.9,184.2,395.2,183,395.2L183,395.2z"/>
		</g>
		<g>
			<path fill="#FFFFFF" d="M213.6,413.3c0.8,0,1.6,0.5,1.9,1.3c0.4,1-0.1,2.2-1.1,2.6c-0.2,0.1-0.5,0.1-0.7,0.1
				c-0.8,0-1.6-0.5-1.9-1.3c-0.4-1,0.1-2.2,1.1-2.6C213.2,413.4,213.4,413.3,213.6,413.3 M213.6,412.3c-0.4,0-0.7,0.1-1.1,0.2
				c-1.5,0.6-2.3,2.3-1.7,3.9c0.5,1.2,1.6,1.9,2.8,1.9c0.4,0,0.7-0.1,1.1-0.2c1.5-0.6,2.3-2.3,1.7-3.9
				C216,413.1,214.9,412.3,213.6,412.3L213.6,412.3z"/>
		</g>
		<g>
			<path fill="#FFFFFF" d="M130.4,457.1c0.8,0,1.6,0.5,1.9,1.3c0.4,1-0.1,2.2-1.1,2.6c-0.2,0.1-0.5,0.1-0.7,0.1
				c-0.8,0-1.6-0.5-1.9-1.3c-0.4-1,0.1-2.2,1.1-2.6C129.9,457.1,130.2,457.1,130.4,457.1 M130.4,456.1c-0.4,0-0.7,0.1-1.1,0.2
				c-1.5,0.6-2.3,2.3-1.7,3.9c0.5,1.2,1.6,1.9,2.8,1.9c0.4,0,0.7-0.1,1.1-0.2c0.7-0.3,1.3-0.9,1.7-1.6s0.3-1.5,0-2.3
				C132.8,456.8,131.7,456.1,130.4,456.1L130.4,456.1z"/>
		</g>
		<g>
			<path fill="#FFFFFF" d="M161.5,426.1c0.8,0,1.6,0.5,1.9,1.3c0.4,1-0.1,2.2-1.1,2.6c-0.2,0.1-0.5,0.1-0.7,0.1
				c-0.8,0-1.6-0.5-1.9-1.3c-0.4-1,0.1-2.2,1.1-2.6C161,426.1,161.3,426.1,161.5,426.1 M161.5,425.1c-0.4,0-0.7,0.1-1.1,0.2
				c-1.5,0.6-2.3,2.3-1.7,3.9c0.5,1.2,1.6,1.9,2.8,1.9c0.4,0,0.7-0.1,1.1-0.2c1.5-0.6,2.3-2.3,1.7-3.9
				C163.8,425.8,162.8,425.1,161.5,425.1L161.5,425.1z"/>
		</g>
	</g>
	<g>
		<line fill="none" stroke="#FFFFFF" stroke-miterlimit="10" x1="634.2" y1="12.7" x2="715" y2="-30.8"/>
		<line fill="none" stroke="#FFFFFF" stroke-miterlimit="10" x1="634.8" y1="14.5" x2="684.8" y2="31"/>
		<line fill="none" stroke="#FFFFFF" stroke-miterlimit="10" x1="761.6" y1="77.9" x2="689.4" y2="33.2"/>
		<line fill="none" stroke="#FFFFFF" stroke-miterlimit="10" x1="795.5" y1="36.7" x2="765.8" y2="77.2"/>
		<line fill="none" stroke="#FFFFFF" stroke-miterlimit="10" x1="795.1" y1="34" x2="741.8" y2="20.2"/>
		<line fill="none" stroke="#FFFFFF" stroke-miterlimit="10" x1="717.9" y1="-29.6" x2="738.8" y2="17.4"/>
		<line fill="none" stroke="#FFFFFF" stroke-miterlimit="10" x1="763.1" y1="77" x2="740.8" y2="22.1"/>
		<line fill="none" stroke="#FFFFFF" stroke-miterlimit="10" x1="688.1" y1="29.7" x2="715.9" y2="-29.7"/>
		<line fill="none" stroke="#FFFFFF" stroke-miterlimit="10" x1="737.3" y1="20" x2="689.4" y2="31.3"/>
		<g>
			<path fill="#FFFFFF" d="M716.9-33.8c0.3,0,0.7,0.1,1,0.3c1,0.6,1.3,1.8,0.7,2.7c-0.4,0.6-1,1-1.7,1c-0.3,0-0.7-0.1-1-0.3
				c-1-0.6-1.3-1.8-0.7-2.7C715.5-33.5,716.2-33.8,716.9-33.8 M716.9-34.8c-1.1,0-2.1,0.6-2.6,1.5c-0.8,1.4-0.3,3.3,1.1,4.1
				c0.5,0.3,1,0.4,1.5,0.4c1.1,0,2.1-0.6,2.6-1.5c0.8-1.4,0.3-3.3-1.1-4.1C717.9-34.7,717.4-34.8,716.9-34.8L716.9-34.8z"/>
		</g>
		<g>
			<path fill="#FFFFFF" d="M632.4,11.7c0.3,0,0.7,0.1,1,0.3c1,0.6,1.3,1.8,0.7,2.7c-0.4,0.6-1,1-1.7,1c-0.3,0-0.7-0.1-1-0.3
				c-1-0.6-1.3-1.8-0.7-2.7C631,12.1,631.7,11.7,632.4,11.7 M632.4,10.7c-1.1,0-2.1,0.6-2.6,1.5c-0.8,1.4-0.3,3.3,1.1,4.1
				c0.5,0.3,1,0.4,1.5,0.4c1.1,0,2.1-0.6,2.6-1.5c0.8-1.4,0.3-3.3-1.1-4.1C633.4,10.9,632.9,10.7,632.4,10.7L632.4,10.7z"/>
		</g>
		<g>
			<path fill="#FFFFFF" d="M739.8,17.7c0.3,0,0.7,0.1,1,0.3c1,0.6,1.3,1.8,0.7,2.7c-0.4,0.6-1,1-1.7,1c-0.3,0-0.7-0.1-1-0.3
				c-1-0.6-1.3-1.8-0.7-2.7C738.4,18,739.1,17.7,739.8,17.7 M739.8,16.7c-1.1,0-2.1,0.6-2.6,1.5c-0.8,1.4-0.3,3.3,1.1,4.1
				c0.5,0.3,1,0.4,1.5,0.4c1.1,0,2.1-0.6,2.6-1.5c0.4-0.7,0.5-1.5,0.3-2.3c-0.2-0.8-0.7-1.4-1.4-1.8
				C740.8,16.8,740.3,16.7,739.8,16.7L739.8,16.7z"/>
		</g>
		<g>
			<path fill="#FFFFFF" d="M687.1,29.8c0.3,0,0.7,0.1,1,0.3c1,0.6,1.3,1.8,0.7,2.7c-0.4,0.6-1,1-1.7,1c-0.3,0-0.7-0.1-1-0.3
				c-1-0.6-1.3-1.8-0.7-2.7C685.8,30.1,686.5,29.8,687.1,29.8 M687.1,28.8c-1.1,0-2.1,0.6-2.6,1.5c-0.4,0.7-0.5,1.5-0.3,2.3
				c0.2,0.8,0.7,1.4,1.4,1.8c0.5,0.3,1,0.4,1.5,0.4c1.1,0,2.1-0.6,2.6-1.5c0.8-1.4,0.3-3.3-1.1-4.1
				C688.2,28.9,687.7,28.8,687.1,28.8L687.1,28.8z"/>
		</g>
		<g>
			<path fill="#FFFFFF" d="M797.1,32.5c0.3,0,0.7,0.1,1,0.3c1,0.6,1.3,1.8,0.7,2.7c-0.4,0.6-1,1-1.7,1c-0.3,0-0.7-0.1-1-0.3
				c-1-0.6-1.3-1.8-0.7-2.7C795.8,32.8,796.4,32.5,797.1,32.5 M797.1,31.5c-1.1,0-2.1,0.6-2.6,1.5c-0.8,1.4-0.3,3.3,1.1,4.1
				c0.5,0.3,1,0.4,1.5,0.4c1.1,0,2.1-0.6,2.6-1.5c0.4-0.7,0.5-1.5,0.3-2.3c-0.2-0.8-0.7-1.4-1.4-1.8
				C798.2,31.6,797.6,31.5,797.1,31.5L797.1,31.5z"/>
		</g>
		<g>
			<path fill="#FFFFFF" d="M764,77c0.3,0,0.7,0.1,1,0.3c1,0.6,1.3,1.8,0.7,2.7c-0.4,0.6-1,1-1.7,1c-0.3,0-0.7-0.1-1-0.3
				c-1-0.6-1.3-1.8-0.7-2.7C762.7,77.3,763.4,77,764,77 M764,76c-1.1,0-2.1,0.6-2.6,1.5c-0.8,1.4-0.3,3.3,1.1,4.1
				c0.5,0.3,1,0.4,1.5,0.4c1.1,0,2.1-0.6,2.6-1.5c0.4-0.7,0.5-1.5,0.3-2.3c-0.2-0.8-0.7-1.4-1.4-1.8C765.1,76.1,764.6,76,764,76
				L764,76z"/>
		</g>
	</g>
	<g>
		<line fill="none" stroke="#FFFFFF" stroke-miterlimit="10" x1="93.8" y1="-59" x2="92.6" y2="32"/>
		<line fill="none" stroke="#FFFFFF" stroke-miterlimit="10" x1="91.9" y1="-59.7" x2="53.3" y2="-24.2"/>
		<line fill="none" stroke="#FFFFFF" stroke-miterlimit="10" x1="-25.7" y1="20.5" x2="49.4" y2="-21.3"/>
		<line fill="none" stroke="#FFFFFF" stroke-miterlimit="10" x1="-5.6" y1="69.9" x2="-26.6" y2="24"/>
		<line fill="none" stroke="#FFFFFF" stroke-miterlimit="10" x1="-2.7" y1="70.5" x2="34.6" y2="31.3"/>
		<line fill="none" stroke="#FFFFFF" stroke-miterlimit="10" x1="90.4" y1="34.3" x2="38.5" y2="29.6"/>
		<line fill="none" stroke="#FFFFFF" stroke-miterlimit="10" x1="-25.3" y1="21.9" x2="33.9" y2="29.1"/>
		<line fill="none" stroke="#FFFFFF" stroke-miterlimit="10" x1="52.8" y1="-20.5" x2="91.1" y2="32.5"/>
		<line fill="none" stroke="#FFFFFF" stroke-miterlimit="10" x1="37" y1="27.2" x2="50.8" y2="-20.2"/>
		<g>
			<path fill="#FFFFFF" d="M92.5,32.5c0.7,0,1.3,0.3,1.7,1c0.6,0.9,0.3,2.2-0.7,2.7c-0.3,0.2-0.7,0.3-1,0.3c-0.7,0-1.3-0.3-1.7-1
				c-0.6-0.9-0.3-2.2,0.7-2.7C91.8,32.6,92.2,32.5,92.5,32.5 M92.5,31.5c-0.5,0-1.1,0.1-1.5,0.4c-1.4,0.8-1.9,2.7-1,4.1
				c0.5,0.9,1.5,1.5,2.6,1.5c0.5,0,1.1-0.1,1.5-0.4c1.4-0.8,1.9-2.7,1-4.1C94.6,32.1,93.6,31.5,92.5,31.5L92.5,31.5z"/>
		</g>
		<g>
			<path fill="#FFFFFF" d="M93.8-63.5c0.7,0,1.3,0.3,1.7,1c0.6,0.9,0.3,2.2-0.7,2.7c-0.3,0.2-0.7,0.3-1,0.3c-0.7,0-1.3-0.3-1.7-1
				c-0.6-0.9-0.3-2.2,0.7-2.7C93.1-63.4,93.5-63.5,93.8-63.5 M93.8-64.5c-0.5,0-1.1,0.1-1.5,0.4c-0.7,0.4-1.2,1.1-1.4,1.8
				c-0.2,0.8-0.1,1.6,0.3,2.3c0.5,0.9,1.5,1.5,2.6,1.5c0.5,0,1.1-0.1,1.5-0.4c0.7-0.4,1.2-1.1,1.4-1.8s0.1-1.6-0.3-2.3
				C95.9-63.9,94.9-64.5,93.8-64.5L93.8-64.5z"/>
		</g>
		<g>
			<path fill="#FFFFFF" d="M36.4,27.4c0.7,0,1.3,0.3,1.7,1c0.6,0.9,0.3,2.2-0.7,2.7c-0.3,0.2-0.7,0.3-1,0.3c-0.7,0-1.3-0.3-1.7-1
				c-0.6-0.9-0.3-2.2,0.7-2.7C35.7,27.5,36,27.4,36.4,27.4 M36.4,26.4c-0.5,0-1.1,0.1-1.5,0.4c-1.4,0.8-1.9,2.7-1,4.1
				c0.5,0.9,1.5,1.5,2.6,1.5c0.5,0,1.1-0.1,1.5-0.4c1.4-0.8,1.9-2.7,1-4.1C38.4,27,37.4,26.4,36.4,26.4L36.4,26.4z"/>
		</g>
		<g>
			<path fill="#FFFFFF" d="M51.4-24.4c0.7,0,1.3,0.3,1.7,1c0.6,0.9,0.3,2.2-0.7,2.7c-0.3,0.2-0.7,0.3-1,0.3c-0.7,0-1.3-0.3-1.7-1
				c-0.6-0.9-0.3-2.2,0.7-2.7C50.7-24.4,51.1-24.4,51.4-24.4 M51.4-25.4c-0.5,0-1.1,0.1-1.5,0.4c-0.7,0.4-1.2,1.1-1.4,1.8
				c-0.2,0.8-0.1,1.6,0.3,2.3c0.5,0.9,1.5,1.5,2.6,1.5c0.5,0,1.1-0.1,1.5-0.4c0.7-0.4,1.2-1.1,1.4-1.8s0.1-1.6-0.3-2.3
				C53.5-24.9,52.5-25.4,51.4-25.4L51.4-25.4z"/>
		</g>
		<g>
			<path fill="#FFFFFF" d="M-4.5,70.3c0.7,0,1.3,0.3,1.7,1c0.6,0.9,0.3,2.2-0.7,2.7c-0.3,0.2-0.7,0.3-1,0.3c-0.7,0-1.3-0.3-1.7-1
				c-0.6-0.9-0.3-2.2,0.7-2.7C-5.2,70.4-4.8,70.3-4.5,70.3 M-4.5,69.3c-0.5,0-1.1,0.1-1.5,0.4c-0.7,0.4-1.2,1.1-1.4,1.8
				c-0.2,0.8-0.1,1.6,0.3,2.3c0.5,0.9,1.5,1.5,2.6,1.5c0.5,0,1.1-0.1,1.5-0.4c0.7-0.4,1.2-1.1,1.4-1.8c0.2-0.8,0.1-1.6-0.3-2.3
				C-2.4,69.9-3.4,69.3-4.5,69.3L-4.5,69.3z"/>
		</g>
		<g>
			<path fill="#FFFFFF" d="M-27.3,19.7c0.7,0,1.3,0.3,1.7,1c0.6,0.9,0.3,2.2-0.7,2.7c-0.3,0.2-0.7,0.3-1,0.3c-0.7,0-1.3-0.3-1.7-1
				c-0.6-0.9-0.3-2.2,0.7-2.7C-28,19.8-27.6,19.7-27.3,19.7 M-27.3,18.7c-0.5,0-1.1,0.1-1.5,0.4c-1.4,0.8-1.9,2.7-1,4.1
				c0.5,0.9,1.5,1.5,2.6,1.5c0.5,0,1.1-0.1,1.5-0.4c1.4-0.8,1.9-2.7,1-4.1C-25.2,19.3-26.2,18.7-27.3,18.7L-27.3,18.7z"/>
		</g>
	</g>
	<g>
		<line fill="none" stroke="#FFFFFF" stroke-miterlimit="10" x1="485.6" y1="593.2" x2="428.7" y2="648.6"/>
		<line fill="none" stroke="#FFFFFF" stroke-miterlimit="10" x1="485.1" y1="591" x2="439.2" y2="581.1"/>
		<line fill="none" stroke="#FFFFFF" stroke-miterlimit="10" x1="335.4" y1="576.2" x2="434.7" y2="580.5"/>
		<line fill="none" stroke="#FFFFFF" stroke-miterlimit="10" x1="425.4" y1="648.6" x2="394.8" y2="614.9"/>
		<line fill="none" stroke="#FFFFFF" stroke-miterlimit="10" x1="335" y1="577.3" x2="391.7" y2="611.6"/>
		<line fill="none" stroke="#FFFFFF" stroke-miterlimit="10" x1="436.7" y1="583.1" x2="427.3" y2="647.8"/>
		<line fill="none" stroke="#FFFFFF" stroke-miterlimit="10" x1="395.6" y1="611.5" x2="434.7" y2="582.3"/>
		<g>
			<path fill="#FFFFFF" d="M427,648.3c0.1,0,0.2,0,0.2,0c1.1,0.1,1.9,1.1,1.8,2.2c-0.1,1-1,1.8-2,1.8c-0.1,0-0.2,0-0.2,0
				c-1.1-0.1-1.9-1.1-1.8-2.2C425.1,649.1,426,648.3,427,648.3 M427,647.3c-1.5,0-2.8,1.1-3,2.7c-0.1,0.8,0.1,1.6,0.6,2.2
				c0.5,0.6,1.2,1,2,1.1c0.1,0,0.2,0,0.3,0c1.5,0,2.8-1.1,3-2.7c0.2-1.6-1-3.1-2.6-3.3C427.2,647.3,427.1,647.3,427,647.3L427,647.3
				z"/>
		</g>
		<g>
			<path fill="#FFFFFF" d="M487.3,589.4c0.1,0,0.2,0,0.2,0c1.1,0.1,1.9,1.1,1.8,2.2c-0.1,1-1,1.8-2,1.8c-0.1,0-0.2,0-0.2,0
				c-1.1-0.1-1.9-1.1-1.8-2.2C485.4,590.2,486.3,589.4,487.3,589.4 M487.3,588.4c-1.5,0-2.8,1.1-3,2.7c-0.1,0.8,0.1,1.6,0.6,2.2
				c0.5,0.6,1.2,1,2,1.1c0.1,0,0.2,0,0.3,0c1.5,0,2.8-1.1,3-2.7c0.1-0.8-0.1-1.6-0.6-2.2c-0.5-0.6-1.2-1-2-1.1
				C487.5,588.5,487.4,588.4,487.3,588.4L487.3,588.4z"/>
		</g>
		<g>
			<path fill="#FFFFFF" d="M393.6,610.7c0.1,0,0.2,0,0.2,0c1.1,0.1,1.9,1.1,1.8,2.2c-0.1,1-1,1.8-2,1.8c-0.1,0-0.2,0-0.2,0
				c-1.1-0.1-1.9-1.1-1.8-2.2C391.7,611.5,392.6,610.7,393.6,610.7 M393.6,609.7c-1.5,0-2.8,1.1-3,2.7c-0.1,0.8,0.1,1.6,0.6,2.2
				c0.5,0.6,1.2,1,2,1.1c0.1,0,0.2,0,0.3,0c1.5,0,2.8-1.1,3-2.7c0.2-1.6-1-3.1-2.6-3.3C393.8,609.8,393.7,609.7,393.6,609.7
				L393.6,609.7z"/>
		</g>
		<g>
			<path fill="#FFFFFF" d="M437,578.6c0.1,0,0.2,0,0.2,0c1.1,0.1,1.9,1.1,1.8,2.2c-0.1,1-1,1.8-2,1.8c-0.1,0-0.2,0-0.2,0
				c-1.1-0.1-1.9-1.1-1.8-2.2C435.2,579.3,436,578.6,437,578.6 M437,577.6c-1.5,0-2.8,1.1-3,2.7c-0.1,0.8,0.1,1.6,0.6,2.2
				c0.5,0.6,1.2,1,2,1.1c0.1,0,0.2,0,0.3,0c1.5,0,2.8-1.1,3-2.7c0.1-0.8-0.1-1.6-0.6-2.2c-0.5-0.6-1.2-1-2-1.1
				C437.3,577.6,437.1,577.6,437,577.6L437,577.6z"/>
		</g>
		<g>
			<path fill="#FFFFFF" d="M333.1,574.1c0.1,0,0.2,0,0.2,0c1.1,0.1,1.9,1.1,1.8,2.2c-0.1,1-1,1.8-2,1.8c-0.1,0-0.2,0-0.2,0
				c-1.1-0.1-1.9-1.1-1.8-2.2C331.2,574.9,332.1,574.1,333.1,574.1 M333.1,573.1c-1.5,0-2.8,1.1-3,2.7c-0.2,1.6,1,3.1,2.6,3.3
				c0.1,0,0.2,0,0.3,0c1.5,0,2.8-1.1,3-2.7c0.2-1.6-1-3.1-2.6-3.3C333.3,573.1,333.2,573.1,333.1,573.1L333.1,573.1z"/>
		</g>
	</g>
	<g>
		<line fill="none" stroke="#FFFFFF" stroke-miterlimit="10" x1="624.8" y1="762.2" x2="643.1" y2="684.7"/>
		<line fill="none" stroke="#FFFFFF" stroke-miterlimit="10" x1="626.1" y1="763.8" x2="670.6" y2="747.4"/>
		<line fill="none" stroke="#FFFFFF" stroke-miterlimit="10" x1="754.7" y1="691.2" x2="674.5" y2="745.3"/>
		<line fill="none" stroke="#FFFFFF" stroke-miterlimit="10" x1="645.7" y1="683" x2="689.9" y2="695.1"/>
		<line fill="none" stroke="#FFFFFF" stroke-miterlimit="10" x1="754.2" y1="690.1" x2="694.5" y2="696"/>
		<line fill="none" stroke="#FFFFFF" stroke-miterlimit="10" x1="671.7" y1="744.9" x2="644.5" y2="684.3"/>
		<line fill="none" stroke="#FFFFFF" stroke-miterlimit="10" x1="690.8" y1="698.6" x2="673.4" y2="744.3"/>
		<g>
			<path fill="#FFFFFF" d="M643.7,680.4c0.7,0,1.5,0.4,1.8,1.1c0.5,1,0.1,2.2-0.9,2.7c-0.3,0.1-0.6,0.2-0.9,0.2
				c-0.7,0-1.5-0.4-1.8-1.1c-0.5-1-0.1-2.2,0.9-2.7C643.1,680.5,643.4,680.4,643.7,680.4 M643.7,679.4c-0.5,0-0.9,0.1-1.3,0.3
				c-1.5,0.7-2.1,2.5-1.4,4c0.5,1,1.6,1.7,2.7,1.7c0.5,0,0.9-0.1,1.3-0.3c0.7-0.3,1.3-1,1.5-1.7c0.3-0.8,0.2-1.6-0.1-2.3
				C645.9,680.1,644.8,679.4,643.7,679.4L643.7,679.4z"/>
		</g>
		<g>
			<path fill="#FFFFFF" d="M624.2,762.5c0.7,0,1.5,0.4,1.8,1.1c0.5,1,0.1,2.2-0.9,2.7c-0.3,0.1-0.6,0.2-0.9,0.2
				c-0.7,0-1.5-0.4-1.8-1.1c-0.5-1-0.1-2.2,0.9-2.7C623.7,762.5,624,762.5,624.2,762.5 M624.2,761.5c-0.5,0-0.9,0.1-1.3,0.3
				c-0.7,0.3-1.3,1-1.5,1.7c-0.3,0.8-0.2,1.6,0.1,2.3c0.5,1,1.6,1.7,2.7,1.7c0.5,0,0.9-0.1,1.3-0.3c1.5-0.7,2.1-2.5,1.4-4
				C626.4,762.1,625.4,761.5,624.2,761.5L624.2,761.5z"/>
		</g>
		<g>
			<path fill="#FFFFFF" d="M692,694.3c0.7,0,1.5,0.4,1.8,1.1c0.5,1,0.1,2.2-0.9,2.7c-0.3,0.1-0.6,0.2-0.9,0.2
				c-0.7,0-1.5-0.4-1.8-1.1c-0.5-1-0.1-2.2,0.9-2.7C691.4,694.3,691.7,694.3,692,694.3 M692,693.3c-0.5,0-0.9,0.1-1.3,0.3
				c-1.5,0.7-2.1,2.5-1.4,4c0.5,1,1.6,1.7,2.7,1.7c0.5,0,0.9-0.1,1.3-0.3c0.7-0.3,1.3-1,1.5-1.7c0.3-0.8,0.2-1.6-0.1-2.3
				C694.2,693.9,693.1,693.3,692,693.3L692,693.3z"/>
		</g>
		<g>
			<path fill="#FFFFFF" d="M672.5,744.7c0.7,0,1.5,0.4,1.8,1.1c0.5,1,0.1,2.2-0.9,2.7c-0.3,0.1-0.6,0.2-0.9,0.2
				c-0.7,0-1.5-0.4-1.8-1.1c-0.5-1-0.1-2.2,0.9-2.7C671.9,744.8,672.2,744.7,672.5,744.7 M672.5,743.7c-0.5,0-0.9,0.1-1.3,0.3
				c-1.5,0.7-2.1,2.5-1.4,4c0.5,1,1.6,1.7,2.7,1.7c0.5,0,0.9-0.1,1.3-0.3c0.7-0.3,1.3-1,1.5-1.7c0.3-0.8,0.2-1.6-0.1-2.3
				C674.7,744.4,673.7,743.7,672.5,743.7L672.5,743.7z"/>
		</g>
		<g>
			<path fill="#FFFFFF" d="M756.7,687.8c0.7,0,1.5,0.4,1.8,1.1c0.5,1,0.1,2.2-0.9,2.7c-0.3,0.1-0.6,0.2-0.9,0.2
				c-0.7,0-1.5-0.4-1.8-1.1c-0.5-1-0.1-2.2,0.9-2.7C756.1,687.9,756.4,687.8,756.7,687.8 M756.7,686.8c-0.5,0-0.9,0.1-1.3,0.3
				c-0.7,0.3-1.3,1-1.5,1.7c-0.3,0.8-0.2,1.6,0.1,2.3c0.5,1,1.6,1.7,2.7,1.7c0.5,0,0.9-0.1,1.3-0.3c0.7-0.3,1.3-1,1.5-1.7
				c0.3-0.8,0.2-1.6-0.1-2.3C758.9,687.5,757.8,686.8,756.7,686.8L756.7,686.8z"/>
		</g>
	</g>
	<g>
		<line fill="none" stroke="#FFFFFF" stroke-miterlimit="10" x1="91.8" y1="666.9" x2="58.4" y2="704.9"/>
		<line fill="none" stroke="#FFFFFF" stroke-miterlimit="10" x1="91.2" y1="665.1" x2="57.3" y2="667.1"/>
		<line fill="none" stroke="#FFFFFF" stroke-miterlimit="10" x1="92.5" y1="663.1" x2="74" y2="633.4"/>
		<line fill="none" stroke="#FFFFFF" stroke-miterlimit="10" x1="95.9" y1="663.9" x2="136.3" y2="646.1"/>
		<line fill="none" stroke="#FFFFFF" stroke-miterlimit="10" x1="111.4" y1="696.4" x2="59" y2="706.5"/>
		<line fill="none" stroke="#FFFFFF" stroke-miterlimit="10" x1="112.5" y1="694.1" x2="94.7" y2="666.7"/>
		<line fill="none" stroke="#FFFFFF" stroke-miterlimit="10" x1="142.2" y1="675.4" x2="95.9" y2="665.4"/>
		<line fill="none" stroke="#FFFFFF" stroke-miterlimit="10" x1="144.1" y1="673.4" x2="138.9" y2="647.3"/>
		<line fill="none" stroke="#FFFFFF" stroke-miterlimit="10" x1="115.7" y1="694.6" x2="142.6" y2="677.2"/>
		<line fill="none" stroke="#FFFFFF" stroke-miterlimit="10" x1="115.9" y1="696.4" x2="166.2" y2="706.4"/>
		<line fill="none" stroke="#FFFFFF" stroke-miterlimit="10" x1="167.4" y1="704.9" x2="146.2" y2="677.9"/>
		<line fill="none" stroke="#FFFFFF" stroke-miterlimit="10" x1="169.3" y1="704.6" x2="176" y2="658.3"/>
		<path fill="none" stroke="#FFFFFF" stroke-miterlimit="10" d="M68.6,670.4"/>
		<g>
			<path fill="#FFFFFF" d="M93.6,662.9c1.1,0,2,0.9,2,2s-0.9,2-2,2c-1.1,0-2-0.9-2-2S92.5,662.9,93.6,662.9 M93.6,661.9
				c-1.7,0-3,1.3-3,3c0,1.7,1.3,3,3,3s3-1.3,3-3C96.6,663.3,95.2,661.9,93.6,661.9L93.6,661.9z"/>
		</g>
		<g>
			<path fill="#FFFFFF" d="M113.7,693.9c1.1,0,2,0.9,2,2s-0.9,2-2,2c-1.1,0-2-0.9-2-2S112.6,693.9,113.7,693.9 M113.7,692.9
				c-1.7,0-3,1.3-3,3c0,1.7,1.3,3,3,3s3-1.3,3-3C116.7,694.3,115.3,692.9,113.7,692.9L113.7,692.9z"/>
		</g>
		<line fill="none" stroke="#FFFFFF" stroke-miterlimit="10" x1="18.4" y1="662" x2="21" y2="629.6"/>
		<line fill="none" stroke="#FFFFFF" stroke-miterlimit="10" x1="53.5" y1="665.6" x2="22.6" y2="629.1"/>
		<line fill="none" stroke="#FFFFFF" stroke-miterlimit="10" x1="20.5" y1="664.4" x2="52.6" y2="667.1"/>
		<line fill="none" stroke="#FFFFFF" stroke-miterlimit="10" x1="19.7" y1="665.9" x2="55.2" y2="705.3"/>
		<line fill="none" stroke="#FFFFFF" stroke-miterlimit="10" x1="15.1" y1="710.7" x2="54.4" y2="707.1"/>
		<line fill="none" stroke="#FFFFFF" stroke-miterlimit="10" x1="11.1" y1="709" x2="-11.3" y2="670.9"/>
		<line fill="none" stroke="#FFFFFF" stroke-miterlimit="10" x1="17.9" y1="666.5" x2="12.6" y2="708.7"/>
		<line fill="none" stroke="#FFFFFF" stroke-miterlimit="10" x1="16.1" y1="664.5" x2="-10.3" y2="668.6"/>
		<line fill="none" stroke="#FFFFFF" stroke-miterlimit="10" x1="19.7" y1="629.3" x2="-10.9" y2="667.1"/>
		<line fill="none" stroke="#FFFFFF" stroke-miterlimit="10" x1="56.6" y1="704.4" x2="55" y2="669.8"/>
		<g>
			<path fill="#FFFFFF" d="M18.2,662.2c0.4,0,0.9,0.1,1.2,0.4c0.9,0.7,1,1.9,0.4,2.8c-0.4,0.5-1,0.8-1.6,0.8c-0.4,0-0.9-0.1-1.2-0.4
				c-0.9-0.7-1-1.9-0.4-2.8C17,662.5,17.6,662.2,18.2,662.2 M18.2,661.2c-0.9,0-1.8,0.4-2.4,1.2c-1,1.3-0.8,3.2,0.5,4.2
				c0.5,0.4,1.2,0.6,1.8,0.6c0.9,0,1.8-0.4,2.4-1.2c1-1.3,0.8-3.2-0.5-4.2C19.5,661.4,18.9,661.2,18.2,661.2L18.2,661.2z"/>
		</g>
		<line fill="none" stroke="#FFFFFF" stroke-miterlimit="10" x1="253.7" y1="684.3" x2="286.6" y2="657.6"/>
		<line fill="none" stroke="#FFFFFF" stroke-miterlimit="10" x1="233.8" y1="666.5" x2="286.4" y2="656.4"/>
		<line fill="none" stroke="#FFFFFF" stroke-miterlimit="10" x1="232.5" y1="665" x2="253.7" y2="619.9"/>
		<line fill="none" stroke="#FFFFFF" stroke-miterlimit="10" x1="287" y1="654.1" x2="256.2" y2="619.7"/>
		<line fill="none" stroke="#FFFFFF" stroke-miterlimit="10" x1="289.8" y1="654.1" x2="303.3" y2="634.7"/>
		<line fill="none" stroke="#FFFFFF" stroke-miterlimit="10" x1="312" y1="669" x2="304.9" y2="635.1"/>
		<line fill="none" stroke="#FFFFFF" stroke-miterlimit="10" x1="310.4" y1="669.6" x2="290.8" y2="657.3"/>
		<line fill="none" stroke="#FFFFFF" stroke-miterlimit="10" x1="311.5" y1="673.1" x2="300.7" y2="693.8"/>
		<line fill="none" stroke="#FFFFFF" stroke-miterlimit="10" x1="253.9" y1="686.4" x2="297.3" y2="695.5"/>
		<line fill="none" stroke="#FFFFFF" stroke-miterlimit="10" x1="267.2" y1="730.3" x2="298" y2="697.6"/>
		<line fill="none" stroke="#FFFFFF" stroke-miterlimit="10" x1="264.8" y1="729.3" x2="252.5" y2="688.5"/>
		<line fill="none" stroke="#FFFFFF" stroke-miterlimit="10" x1="264" y1="730.7" x2="239.2" y2="710.2"/>
		<line fill="none" stroke="#FFFFFF" stroke-miterlimit="10" x1="289.2" y1="658.2" x2="299" y2="693.6"/>
		<line fill="none" stroke="#FFFFFF" stroke-miterlimit="10" x1="302.4" y1="632.3" x2="256.8" y2="618.6"/>
		<line fill="none" stroke="#FFFFFF" stroke-miterlimit="10" x1="233.3" y1="668.6" x2="250" y2="684.3"/>
		<line fill="none" stroke="#FFFFFF" stroke-miterlimit="10" x1="205.1" y1="694.2" x2="249.3" y2="686.1"/>
		<line fill="none" stroke="#FFFFFF" stroke-miterlimit="10" x1="238.9" y1="706.9" x2="250.5" y2="687.9"/>
		<line fill="none" stroke="#FFFFFF" stroke-miterlimit="10" x1="235.5" y1="708" x2="204.9" y2="695.8"/>
		<line fill="none" stroke="#FFFFFF" stroke-miterlimit="10" x1="230" y1="668.5" x2="204.3" y2="693.4"/>
		<line fill="none" stroke="#FFFFFF" stroke-miterlimit="10" x1="229" y1="666.4" x2="178.9" y2="656.4"/>
		<line fill="none" stroke="#FFFFFF" stroke-miterlimit="10" x1="230.7" y1="664.4" x2="222.5" y2="642.4"/>
		<line fill="none" stroke="#FFFFFF" stroke-miterlimit="10" x1="252.6" y1="619.3" x2="223.6" y2="638.6"/>
		<line fill="none" stroke="#FFFFFF" stroke-miterlimit="10" x1="252.2" y1="617.8" x2="193" y2="614.1"/>
		<line fill="none" stroke="#FFFFFF" stroke-miterlimit="10" x1="219.6" y1="640.6" x2="178.9" y2="655"/>
		<line fill="none" stroke="#FFFFFF" stroke-miterlimit="10" x1="219.8" y1="638.5" x2="192.3" y2="615.4"/>
		<line fill="none" stroke="#FFFFFF" stroke-miterlimit="10" x1="177.2" y1="653.4" x2="189.7" y2="616.5"/>
		<line fill="none" stroke="#FFFFFF" stroke-miterlimit="10" x1="177.6" y1="657.7" x2="201.5" y2="693.1"/>
		<line fill="none" stroke="#FFFFFF" stroke-miterlimit="10" x1="170.9" y1="706.2" x2="200.7" y2="695.6"/>
		<line fill="none" stroke="#FFFFFF" stroke-miterlimit="10" x1="174.5" y1="655.4" x2="140.7" y2="645.4"/>
		<line fill="none" stroke="#FFFFFF" stroke-miterlimit="10" x1="174.7" y1="657" x2="146.2" y2="674.9"/>
		<path fill="none" stroke="#FFFFFF" stroke-miterlimit="10" d="M276.7,692.4"/>
		<g>
			<path fill="#FFFFFF" d="M251.7,683.9c1.1,0,2,0.9,2,2s-0.9,2-2,2s-2-0.9-2-2S250.6,683.9,251.7,683.9 M251.7,682.9
				c-1.7,0-3,1.3-3,3c0,1.7,1.3,3,3,3s3-1.3,3-3C254.7,684.3,253.3,682.9,251.7,682.9L251.7,682.9z"/>
		</g>
		<g>
			<path fill="#FFFFFF" d="M237.7,706.9c1.1,0,2,0.9,2,2s-0.9,2-2,2s-2-0.9-2-2S236.6,706.9,237.7,706.9 M237.7,705.9
				c-1.7,0-3,1.3-3,3c0,1.7,1.3,3,3,3s3-1.3,3-3C240.7,707.3,239.3,705.9,237.7,705.9L237.7,705.9z"/>
		</g>
		<g>
			<path fill="#FFFFFF" d="M202.7,692.9c1.1,0,2,0.9,2,2s-0.9,2-2,2c-1.1,0-2-0.9-2-2S201.6,692.9,202.7,692.9 M202.7,691.9
				c-1.7,0-3,1.3-3,3c0,1.7,1.3,3,3,3s3-1.3,3-3C205.7,693.3,204.3,691.9,202.7,691.9L202.7,691.9z"/>
		</g>
		<g>
			<path fill="#FFFFFF" d="M176.7,653.9c1.1,0,2,0.9,2,2s-0.9,2-2,2c-1.1,0-2-0.9-2-2S175.6,653.9,176.7,653.9 M176.7,652.9
				c-1.7,0-3,1.3-3,3c0,1.7,1.3,3,3,3s3-1.3,3-3C179.7,654.3,178.3,652.9,176.7,652.9L176.7,652.9z"/>
		</g>
		<g>
			<path fill="#FFFFFF" d="M288.6,653.9c1.1,0,2,0.9,2,2s-0.9,2-2,2c-1.1,0-2-0.9-2-2S287.5,653.9,288.6,653.9 M288.6,652.9
				c-1.7,0-3,1.3-3,3c0,1.7,1.3,3,3,3s3-1.3,3-3C291.6,654.3,290.2,652.9,288.6,652.9L288.6,652.9z"/>
		</g>
		<g>
			<path fill="#FFFFFF" d="M265.6,729.9c1.1,0,2,0.9,2,2s-0.9,2-2,2c-1.1,0-2-0.9-2-2S264.5,729.9,265.6,729.9 M265.6,728.9
				c-1.7,0-3,1.3-3,3c0,1.7,1.3,3,3,3s3-1.3,3-3C268.6,730.3,267.2,728.9,265.6,728.9L265.6,728.9z"/>
		</g>
		<g>
			<path fill="#FFFFFF" d="M231.6,664.9c1.1,0,2,0.9,2,2s-0.9,2-2,2s-2-0.9-2-2S230.5,664.9,231.6,664.9 M231.6,663.9
				c-1.7,0-3,1.3-3,3c0,1.7,1.3,3,3,3s3-1.3,3-3C234.6,665.3,233.2,663.9,231.6,663.9L231.6,663.9z"/>
		</g>
		<g>
			<path fill="#FFFFFF" d="M221.6,637.9c1.1,0,2,0.9,2,2s-0.9,2-2,2s-2-0.9-2-2S220.5,637.9,221.6,637.9 M221.6,636.9
				c-1.7,0-3,1.3-3,3c0,1.7,1.3,3,3,3s3-1.3,3-3C224.6,638.3,223.2,636.9,221.6,636.9L221.6,636.9z"/>
		</g>
		<g>
			<path fill="#FFFFFF" d="M254.6,615.9c1.1,0,2,0.9,2,2s-0.9,2-2,2s-2-0.9-2-2S253.5,615.9,254.6,615.9 M254.6,614.9
				c-1.7,0-3,1.3-3,3c0,1.7,1.3,3,3,3c1.7,0,3-1.3,3-3C257.6,616.3,256.2,614.9,254.6,614.9L254.6,614.9z"/>
		</g>
		<line fill="none" stroke="#FFFFFF" stroke-miterlimit="10" x1="81.3" y1="475.3" x2="32.5" y2="460.9"/>
		<line fill="none" stroke="#FFFFFF" stroke-miterlimit="10" x1="62.6" y1="505.3" x2="31.5" y2="462.1"/>
		<line fill="none" stroke="#FFFFFF" stroke-miterlimit="10" x1="65.5" y1="505" x2="82.3" y2="478.3"/>
		<line fill="none" stroke="#FFFFFF" stroke-miterlimit="10" x1="61.6" y1="507.3" x2="12.4" y2="507"/>
		<line fill="none" stroke="#FFFFFF" stroke-miterlimit="10" x1="29.2" y1="462.3" x2="10.8" y2="504.9"/>
		<line fill="none" stroke="#FFFFFF" stroke-miterlimit="10" x1="28" y1="458.6" x2="-0.2" y2="437.1"/>
		<line fill="none" stroke="#FFFFFF" stroke-miterlimit="10" x1="31.3" y1="422" x2="0" y2="434.6"/>
		<line fill="none" stroke="#FFFFFF" stroke-miterlimit="10" x1="33.4" y1="423.7" x2="30.3" y2="457.6"/>
		<line fill="none" stroke="#FFFFFF" stroke-miterlimit="10" x1="35.8" y1="422" x2="59.6" y2="432.5"/>
		<line fill="none" stroke="#FFFFFF" stroke-miterlimit="10" x1="32" y1="458.6" x2="59.8" y2="435"/>
		<line fill="none" stroke="#FFFFFF" stroke-miterlimit="10" x1="-1.9" y1="438" x2="9.5" y2="504.6"/>
		<line fill="none" stroke="#FFFFFF" stroke-miterlimit="10" x1="11.8" y1="508.2" x2="42.1" y2="526.7"/>
		<line fill="none" stroke="#FFFFFF" stroke-miterlimit="10" x1="62.4" y1="509" x2="45.7" y2="526.5"/>
		<g>
			<path fill="#FFFFFF" d="M30.1,458.2c0.8,0,1.5,0.4,1.8,1.2c0.5,1,0,2.2-1,2.7c-0.3,0.1-0.6,0.2-0.8,0.2c-0.8,0-1.5-0.4-1.8-1.2
				c-0.5-1,0-2.2,1-2.7C29.5,458.3,29.8,458.2,30.1,458.2 M30.1,457.2c-0.4,0-0.9,0.1-1.3,0.3c-0.7,0.3-1.3,0.9-1.6,1.7
				c-0.3,0.8-0.2,1.6,0.1,2.3c0.5,1.1,1.6,1.7,2.7,1.7c0.4,0,0.9-0.1,1.3-0.3c0.7-0.3,1.3-0.9,1.6-1.7c0.3-0.8,0.2-1.6-0.1-2.3
				C32.3,457.9,31.2,457.2,30.1,457.2L30.1,457.2z"/>
		</g>
		<g>
			<path fill="#FFFFFF" d="M84.1,474.2c0.8,0,1.5,0.4,1.8,1.2c0.5,1,0,2.2-1,2.7c-0.3,0.1-0.6,0.2-0.8,0.2c-0.8,0-1.5-0.4-1.8-1.2
				c-0.5-1,0-2.2,1-2.7C83.5,474.3,83.8,474.2,84.1,474.2 M84.1,473.2c-0.4,0-0.9,0.1-1.3,0.3c-0.7,0.3-1.3,0.9-1.6,1.7
				c-0.3,0.8-0.2,1.6,0.1,2.3c0.5,1.1,1.6,1.7,2.7,1.7c0.4,0,0.9-0.1,1.3-0.3c0.7-0.3,1.3-0.9,1.6-1.7c0.3-0.8,0.2-1.6-0.1-2.3
				C86.3,473.9,85.2,473.2,84.1,473.2L84.1,473.2z"/>
		</g>
		<g>
			<path fill="#FFFFFF" d="M-2.3,433.5c0.8,0,1.5,0.4,1.8,1.2c0.5,1,0,2.2-1,2.7c-0.3,0.1-0.6,0.2-0.8,0.2c-0.8,0-1.5-0.4-1.8-1.2
				c-0.5-1,0-2.2,1-2.7C-2.9,433.6-2.6,433.5-2.3,433.5 M-2.3,432.5c-0.4,0-0.9,0.1-1.3,0.3c-0.7,0.3-1.3,0.9-1.6,1.7
				c-0.3,0.8-0.2,1.6,0.1,2.3c0.5,1.1,1.6,1.7,2.7,1.7c0.4,0,0.9-0.1,1.3-0.3c0.7-0.3,1.3-0.9,1.6-1.7s0.2-1.6-0.1-2.3
				C-0.1,433.2-1.1,432.5-2.3,432.5L-2.3,432.5z"/>
		</g>
		<g>
			<path fill="#FFFFFF" d="M33.6,419.1c0.8,0,1.5,0.4,1.8,1.2c0.5,1,0,2.2-1,2.7c-0.3,0.1-0.6,0.2-0.8,0.2c-0.8,0-1.5-0.4-1.8-1.2
				c-0.5-1,0-2.2,1-2.7C33,419.2,33.3,419.1,33.6,419.1 M33.6,418.1c-0.4,0-0.9,0.1-1.3,0.3c-0.7,0.3-1.3,0.9-1.6,1.7
				c-0.3,0.8-0.2,1.6,0.1,2.3c0.5,1.1,1.6,1.7,2.7,1.7c0.4,0,0.9-0.1,1.3-0.3c1.5-0.7,2.2-2.5,1.5-4
				C35.8,418.8,34.8,418.1,33.6,418.1L33.6,418.1z"/>
		</g>
		<g>
			<path fill="#FFFFFF" d="M61.6,431.1c0.8,0,1.5,0.4,1.8,1.2c0.5,1,0,2.2-1,2.7c-0.3,0.1-0.6,0.2-0.8,0.2c-0.8,0-1.5-0.4-1.8-1.2
				c-0.5-1,0-2.2,1-2.7C61,431.2,61.3,431.1,61.6,431.1 M61.6,430.1c-0.4,0-0.9,0.1-1.3,0.3c-0.7,0.3-1.3,0.9-1.6,1.7
				c-0.3,0.8-0.2,1.6,0.1,2.3c0.5,1.1,1.6,1.7,2.7,1.7c0.4,0,0.9-0.1,1.3-0.3c1.5-0.7,2.2-2.5,1.5-4
				C63.8,430.8,62.8,430.1,61.6,430.1L61.6,430.1z"/>
		</g>
		<g>
			<path fill="#FFFFFF" d="M63.9,505c0.8,0,1.5,0.4,1.8,1.2c0.5,1,0,2.2-1,2.7c-0.3,0.1-0.6,0.2-0.8,0.2c-0.8,0-1.5-0.4-1.8-1.2
				c-0.5-1,0-2.2,1-2.7C63.3,505.1,63.6,505,63.9,505 M63.9,504c-0.4,0-0.9,0.1-1.3,0.3c-1.5,0.7-2.2,2.5-1.5,4
				c0.5,1.1,1.6,1.7,2.7,1.7c0.4,0,0.9-0.1,1.3-0.3c1.5-0.7,2.2-2.5,1.5-4C66.1,504.7,65.1,504,63.9,504L63.9,504z"/>
		</g>
		<line fill="none" stroke="#FFFFFF" stroke-miterlimit="10" x1="22.4" y1="625.3" x2="60.4" y2="559.8"/>
		<line fill="none" stroke="#FFFFFF" stroke-miterlimit="10" x1="16.4" y1="581.2" x2="59.4" y2="558.9"/>
		<line fill="none" stroke="#FFFFFF" stroke-miterlimit="10" x1="13.6" y1="584.7" x2="-3.7" y2="655.7"/>
		<line fill="none" stroke="#FFFFFF" stroke-miterlimit="10" x1="12.2" y1="581.1" x2="-12.4" y2="565.3"/>
		<line fill="none" stroke="#FFFFFF" stroke-miterlimit="10" x1="-12.4" y1="668.9" x2="-14.4" y2="564"/>
		<line fill="none" stroke="#FFFFFF" stroke-miterlimit="10" x1="59.4" y1="557.9" x2="-12.2" y2="563.8"/>
		<line fill="none" stroke="#FFFFFF" stroke-miterlimit="10" x1="42.1" y1="529.4" x2="-12.4" y2="562.8"/>
		<line fill="none" stroke="#FFFFFF" stroke-miterlimit="10" x1="9" y1="509.2" x2="-13.5" y2="561.8"/>
		<line fill="none" stroke="#FFFFFF" stroke-miterlimit="10" x1="60.5" y1="555.8" x2="45.2" y2="530.1"/>
		<line fill="none" stroke="#FFFFFF" stroke-miterlimit="10" x1="63.7" y1="556.3" x2="87.1" y2="539.6"/>
		<line fill="none" stroke="#FFFFFF" stroke-miterlimit="10" x1="46.3" y1="528.3" x2="86.9" y2="537.7"/>
		<line fill="none" stroke="#FFFFFF" stroke-miterlimit="10" x1="23.7" y1="627.6" x2="70.4" y2="631.4"/>
		<line fill="none" stroke="#FFFFFF" stroke-miterlimit="10" x1="56.1" y1="664.8" x2="71.7" y2="634"/>
		<line fill="none" stroke="#FFFFFF" stroke-miterlimit="10" x1="136" y1="644.5" x2="75.6" y2="632.2"/>
		<line fill="none" stroke="#FFFFFF" stroke-miterlimit="10" x1="161.6" y1="565.3" x2="139.4" y2="642.5"/>
		<line fill="none" stroke="#FFFFFF" stroke-miterlimit="10" x1="163.4" y1="564.7" x2="189.5" y2="611.9"/>
		<line fill="none" stroke="#FFFFFF" stroke-miterlimit="10" x1="188.6" y1="615.1" x2="140.7" y2="643.9"/>
		<line fill="none" stroke="#FFFFFF" stroke-miterlimit="10" x1="160.4" y1="564" x2="114.3" y2="593.5"/>
		<line fill="none" stroke="#FFFFFF" stroke-miterlimit="10" x1="63.7" y1="559.1" x2="110.6" y2="592.7"/>
		<line fill="none" stroke="#FFFFFF" stroke-miterlimit="10" x1="89.9" y1="540.2" x2="111.7" y2="592.2"/>
		<line fill="none" stroke="#FFFFFF" stroke-miterlimit="10" x1="91.4" y1="539" x2="160.1" y2="562"/>
		<line fill="none" stroke="#FFFFFF" stroke-miterlimit="10" x1="137.5" y1="642.8" x2="113.5" y2="597"/>
		<line fill="none" stroke="#FFFFFF" stroke-miterlimit="10" x1="72.6" y1="629.4" x2="62" y2="559.9"/>
		<line fill="none" stroke="#FFFFFF" stroke-miterlimit="10" x1="110.3" y1="596.3" x2="75.2" y2="629.5"/>
		<g>
			<path fill="#FFFFFF" d="M61.7,555.7c1.1,0,2,0.9,2,2s-0.9,2-2,2c-1.1,0-2-0.9-2-2S60.6,555.7,61.7,555.7 M61.7,554.7
				c-1.7,0-3,1.3-3,3c0,1.7,1.3,3,3,3s3-1.3,3-3C64.7,556,63.3,554.7,61.7,554.7L61.7,554.7z"/>
		</g>
		<g>
			<path fill="#FFFFFF" d="M112.3,592.7c1.1,0,2,0.9,2,2s-0.9,2-2,2c-1.1,0-2-0.9-2-2S111.2,592.7,112.3,592.7 M112.3,591.7
				c-1.7,0-3,1.3-3,3c0,1.7,1.3,3,3,3s3-1.3,3-3C115.3,593.1,114,591.7,112.3,591.7L112.3,591.7z"/>
		</g>
		<g>
			<path fill="#FFFFFF" d="M72.9,629.7c1.1,0,2,0.9,2,2c0,1.1-0.9,2-2,2c-1.1,0-2-0.9-2-2C70.9,630.5,71.8,629.7,72.9,629.7
				 M72.9,628.7c-1.7,0-3,1.3-3,3c0,1.7,1.3,3,3,3s3-1.3,3-3C75.9,630,74.6,628.7,72.9,628.7L72.9,628.7z"/>
		</g>
		<g>
			<path fill="#FFFFFF" d="M162.3,560.7c1.1,0,2,0.9,2,2c0,1.1-0.9,2-2,2c-1.1,0-2-0.9-2-2C160.3,561.6,161.2,560.7,162.3,560.7
				 M162.3,559.7c-1.7,0-3,1.3-3,3c0,1.7,1.3,3,3,3s3-1.3,3-3C165.3,561.1,164,559.7,162.3,559.7L162.3,559.7z"/>
		</g>
		<g>
			<path fill="#FFFFFF" d="M138.3,642.7c1.1,0,2,0.9,2,2s-0.9,2-2,2c-1.1,0-2-0.9-2-2S137.2,642.7,138.3,642.7 M138.3,641.7
				c-1.7,0-3,1.3-3,3c0,1.7,1.3,3,3,3s3-1.3,3-3C141.3,643.1,140,641.7,138.3,641.7L138.3,641.7z"/>
		</g>
		<line fill="none" stroke="#FFFFFF" stroke-miterlimit="10" x1="341.3" y1="685.6" x2="392.5" y2="727.7"/>
		<line fill="none" stroke="#FFFFFF" stroke-miterlimit="10" x1="362.1" y1="630.7" x2="340.3" y2="681.9"/>
		<line fill="none" stroke="#FFFFFF" stroke-miterlimit="10" x1="361.2" y1="630.1" x2="314.4" y2="669.4"/>
		<line fill="none" stroke="#FFFFFF" stroke-miterlimit="10" x1="360.8" y1="628.8" x2="306.8" y2="632.8"/>
		<line fill="none" stroke="#FFFFFF" stroke-miterlimit="10" x1="363.5" y1="630.8" x2="372.9" y2="666.2"/>
		<line fill="none" stroke="#FFFFFF" stroke-miterlimit="10" x1="426.3" y1="667.9" x2="375.8" y2="667.8"/>
		<line fill="none" stroke="#FFFFFF" stroke-miterlimit="10" x1="341.5" y1="683.1" x2="371.4" y2="669.4"/>
		<line fill="none" stroke="#FFFFFF" stroke-miterlimit="10" x1="337.3" y1="683" x2="314.7" y2="672"/>
		<line fill="none" stroke="#FFFFFF" stroke-miterlimit="10" x1="337" y1="684.8" x2="302" y2="695.2"/>
		<line fill="none" stroke="#FFFFFF" stroke-miterlimit="10" x1="392" y1="728.4" x2="302" y2="696.8"/>
		<line fill="none" stroke="#FFFFFF" stroke-miterlimit="10" x1="395.6" y1="727.2" x2="427.5" y2="670"/>
		<line fill="none" stroke="#FFFFFF" stroke-miterlimit="10" x1="374.4" y1="670.4" x2="393.7" y2="727"/>
		<g>
			<path fill="#FFFFFF" d="M428.7,665.9c0.3,0,0.5,0.1,0.8,0.2c1,0.5,1.5,1.6,1,2.6c-0.3,0.7-1.1,1.2-1.8,1.2
				c-0.3,0-0.5-0.1-0.8-0.2c-1-0.5-1.5-1.6-1-2.6C427.2,666.4,427.9,665.9,428.7,665.9 M428.7,664.9L428.7,664.9
				c-1.2,0-2.3,0.7-2.7,1.8c-0.3,0.7-0.3,1.5-0.1,2.3c0.3,0.7,0.8,1.3,1.6,1.7c0.4,0.2,0.8,0.3,1.2,0.3c1.2,0,2.3-0.7,2.7-1.8
				c0.7-1.5,0-3.3-1.5-4C429.5,665,429.1,664.9,428.7,664.9L428.7,664.9z"/>
		</g>
		<g>
			<path fill="#FFFFFF" d="M373.5,666.4c0.3,0,0.5,0.1,0.8,0.2c1,0.5,1.5,1.6,1,2.6c-0.3,0.7-1.1,1.2-1.8,1.2
				c-0.3,0-0.5-0.1-0.8-0.2c-1-0.5-1.5-1.6-1-2.6C372,666.9,372.7,666.4,373.5,666.4 M373.5,665.4L373.5,665.4
				c-1.2,0-2.3,0.7-2.7,1.8c-0.7,1.5,0,3.3,1.5,4c0.4,0.2,0.8,0.3,1.2,0.3c1.2,0,2.3-0.7,2.7-1.8c0.3-0.7,0.3-1.5,0.1-2.3
				c-0.3-0.7-0.8-1.3-1.6-1.7C374.3,665.5,373.9,665.4,373.5,665.4L373.5,665.4z"/>
		</g>
		<g>
			<path fill="#FFFFFF" d="M394.4,727.2c0.3,0,0.5,0.1,0.8,0.2c1,0.5,1.5,1.6,1,2.6c-0.3,0.7-1.1,1.2-1.8,1.2
				c-0.3,0-0.5-0.1-0.8-0.2c-1-0.5-1.5-1.6-1-2.6C392.9,727.7,393.7,727.2,394.4,727.2 M394.4,726.2L394.4,726.2
				c-1.2,0-2.3,0.7-2.7,1.8c-0.3,0.7-0.3,1.5-0.1,2.3c0.3,0.7,0.8,1.3,1.6,1.7c0.4,0.2,0.8,0.3,1.2,0.3c1.2,0,2.3-0.7,2.7-1.8
				c0.3-0.7,0.3-1.5,0.1-2.3c-0.3-0.7-0.8-1.3-1.6-1.7C395.3,726.3,394.9,726.2,394.4,726.2L394.4,726.2z"/>
		</g>
		<g>
			<path fill="#FFFFFF" d="M363,626.6c0.3,0,0.5,0.1,0.8,0.2c1,0.5,1.5,1.6,1,2.6c-0.3,0.7-1.1,1.2-1.8,1.2c-0.3,0-0.5-0.1-0.8-0.2
				c-1-0.5-1.5-1.6-1-2.6C361.5,627,362.2,626.6,363,626.6 M363,625.6L363,625.6c-1.2,0-2.3,0.7-2.7,1.8c-0.3,0.7-0.3,1.5-0.1,2.3
				c0.3,0.7,0.8,1.3,1.6,1.7c0.4,0.2,0.8,0.3,1.2,0.3c1.2,0,2.3-0.7,2.7-1.8c0.3-0.7,0.3-1.5,0.1-2.3c-0.3-0.7-0.8-1.3-1.6-1.7
				C363.8,625.7,363.4,625.6,363,625.6L363,625.6z"/>
		</g>
		<g>
			<path fill="#FFFFFF" d="M339.8,681.9c0.3,0,0.5,0.1,0.8,0.2c1,0.5,1.5,1.6,1,2.6c-0.3,0.7-1.1,1.2-1.8,1.2
				c-0.3,0-0.5-0.1-0.8-0.2c-1-0.5-1.5-1.6-1-2.6C338.3,682.3,339.1,681.9,339.8,681.9 M339.8,680.9L339.8,680.9
				c-1.2,0-2.3,0.7-2.7,1.8c-0.3,0.7-0.3,1.5-0.1,2.3c0.3,0.7,0.8,1.3,1.6,1.7c0.4,0.2,0.8,0.3,1.2,0.3c1.2,0,2.3-0.7,2.7-1.8
				c0.7-1.5,0-3.3-1.5-4C340.7,681,340.3,680.9,339.8,680.9L339.8,680.9z"/>
		</g>
		<g>
			<path fill="#FFFFFF" d="M144.6,673.9c1.1,0,2,0.9,2,2s-0.9,2-2,2c-1.1,0-2-0.9-2-2S143.5,673.9,144.6,673.9 M144.6,672.9
				c-1.7,0-3,1.3-3,3c0,1.7,1.3,3,3,3s3-1.3,3-3C147.6,674.3,146.2,672.9,144.6,672.9L144.6,672.9z"/>
		</g>
		<g>
			<path fill="#FFFFFF" d="M168.6,704.9c1.1,0,2,0.9,2,2s-0.9,2-2,2c-1.1,0-2-0.9-2-2S167.5,704.9,168.6,704.9 M168.6,703.9
				c-1.7,0-3,1.3-3,3c0,1.7,1.3,3,3,3s3-1.3,3-3C171.6,705.3,170.2,703.9,168.6,703.9L168.6,703.9z"/>
		</g>
		<g>
			<path fill="#FFFFFF" d="M56.7,704.9c1.1,0,2,0.9,2,2s-0.9,2-2,2c-1.1,0-2-0.9-2-2S55.6,704.9,56.7,704.9 M56.7,703.9
				c-1.7,0-3,1.3-3,3c0,1.7,1.3,3,3,3s3-1.3,3-3C59.7,705.3,58.3,703.9,56.7,703.9L56.7,703.9z"/>
		</g>
		<g>
			<path fill="#FFFFFF" d="M12.7,708.9c1.1,0,2,0.9,2,2s-0.9,2-2,2c-1.1,0-2-0.9-2-2S11.6,708.9,12.7,708.9 M12.7,707.9
				c-1.7,0-3,1.3-3,3c0,1.7,1.3,3,3,3s3-1.3,3-3C15.7,709.3,14.3,707.9,12.7,707.9L12.7,707.9z"/>
		</g>
		<g>
			<path fill="#FFFFFF" d="M54.9,665.2c0.4,0,0.9,0.1,1.2,0.4c0.9,0.7,1,1.9,0.4,2.8c-0.4,0.5-1,0.8-1.6,0.8c-0.4,0-0.9-0.1-1.2-0.4
				c-0.9-0.7-1-1.9-0.4-2.8C53.7,665.5,54.3,665.2,54.9,665.2 M54.9,664.2c-0.9,0-1.8,0.4-2.4,1.2c-1,1.3-0.8,3.2,0.5,4.2
				c0.5,0.4,1.2,0.6,1.8,0.6c0.9,0,1.8-0.4,2.4-1.2c1-1.3,0.8-3.2-0.5-4.2C56.2,664.5,55.6,664.2,54.9,664.2L54.9,664.2z"/>
		</g>
		<g>
			<path fill="#FFFFFF" d="M304.6,630.9c1.1,0,2,0.9,2,2s-0.9,2-2,2c-1.1,0-2-0.9-2-2S303.5,630.9,304.6,630.9 M304.6,629.9
				c-1.7,0-3,1.3-3,3c0,1.7,1.3,3,3,3s3-1.3,3-3C307.6,631.3,306.2,629.9,304.6,629.9L304.6,629.9z"/>
		</g>
		<g>
			<path fill="#FFFFFF" d="M312.6,668.9c1.1,0,2,0.9,2,2s-0.9,2-2,2c-1.1,0-2-0.9-2-2S311.5,668.9,312.6,668.9 M312.6,667.9
				c-1.7,0-3,1.3-3,3c0,1.7,1.3,3,3,3s3-1.3,3-3C315.6,669.3,314.2,667.9,312.6,667.9L312.6,667.9z"/>
		</g>
		<g>
			<path fill="#FFFFFF" d="M299.6,693.9c1.1,0,2,0.9,2,2s-0.9,2-2,2c-1.1,0-2-0.9-2-2S298.5,693.9,299.6,693.9 M299.6,692.9
				c-1.7,0-3,1.3-3,3c0,1.7,1.3,3,3,3s3-1.3,3-3C302.6,694.3,301.2,692.9,299.6,692.9L299.6,692.9z"/>
		</g>
		<g>
			<path fill="#FFFFFF" d="M190.6,611.9c1.1,0,2,0.9,2,2s-0.9,2-2,2c-1.1,0-2-0.9-2-2S189.5,611.9,190.6,611.9 M190.6,610.9
				c-1.7,0-3,1.3-3,3c0,1.7,1.3,3,3,3s3-1.3,3-3C193.6,612.3,192.2,610.9,190.6,610.9L190.6,610.9z"/>
		</g>
		<g>
			<path fill="#FFFFFF" d="M44.1,526.2c0.8,0,1.5,0.4,1.8,1.2c0.5,1,0,2.2-1,2.7c-0.3,0.1-0.6,0.2-0.8,0.2c-0.8,0-1.5-0.4-1.8-1.2
				c-0.5-1,0-2.2,1-2.7C43.5,526.3,43.8,526.2,44.1,526.2 M44.1,525.2c-0.4,0-0.9,0.1-1.3,0.3c-0.7,0.3-1.3,0.9-1.6,1.7
				c-0.3,0.8-0.2,1.6,0.1,2.3c0.5,1.1,1.6,1.7,2.7,1.7c0.4,0,0.9-0.1,1.3-0.3c0.7-0.3,1.3-0.9,1.6-1.7c0.3-0.8,0.2-1.6-0.1-2.3
				C46.3,525.9,45.2,525.2,44.1,525.2L44.1,525.2z"/>
		</g>
		<g>
			<path fill="#FFFFFF" d="M89.1,536.2c0.8,0,1.5,0.4,1.8,1.2c0.5,1,0,2.2-1,2.7c-0.3,0.1-0.6,0.2-0.8,0.2c-0.8,0-1.5-0.4-1.8-1.2
				c-0.5-1,0-2.2,1-2.7C88.5,536.3,88.8,536.2,89.1,536.2 M89.1,535.2c-0.4,0-0.9,0.1-1.3,0.3c-0.7,0.3-1.3,0.9-1.6,1.7
				c-0.3,0.8-0.2,1.6,0.1,2.3c0.5,1.1,1.6,1.7,2.7,1.7c0.4,0,0.9-0.1,1.3-0.3c0.7-0.3,1.3-0.9,1.6-1.7c0.3-0.8,0.2-1.6-0.1-2.3
				C91.3,535.9,90.2,535.2,89.1,535.2L89.1,535.2z"/>
		</g>
		<g>
			<path fill="#FFFFFF" d="M9.9,505c0.8,0,1.5,0.4,1.8,1.2c0.5,1,0,2.2-1,2.7c-0.3,0.1-0.6,0.2-0.8,0.2c-0.8,0-1.5-0.4-1.8-1.2
				c-0.5-1,0-2.2,1-2.7C9.3,505.1,9.6,505,9.9,505 M9.9,504c-0.4,0-0.9,0.1-1.3,0.3c-1.5,0.7-2.2,2.5-1.5,4c0.5,1.1,1.6,1.7,2.7,1.7
				c0.4,0,0.9-0.1,1.3-0.3c1.5-0.7,2.2-2.5,1.5-4C12.1,504.7,11.1,504,9.9,504L9.9,504z"/>
		</g>
		<g>
			<path fill="#FFFFFF" d="M-12.3,666.9c1.1,0,2,0.9,2,2s-0.9,2-2,2c-1.1,0-2-0.9-2-2S-13.4,666.9-12.3,666.9 M-12.3,665.9
				c-1.7,0-3,1.3-3,3c0,1.7,1.3,3,3,3s3-1.3,3-3C-9.3,667.3-10.7,665.9-12.3,665.9L-12.3,665.9z"/>
		</g>
		<g>
			<path fill="#FFFFFF" d="M-14.8,562.4c0.4,0,0.9,0.1,1.2,0.4c0.9,0.7,1,1.9,0.4,2.8c-0.4,0.5-1,0.8-1.6,0.8
				c-0.4,0-0.9-0.1-1.2-0.4c-0.9-0.7-1-1.9-0.4-2.8C-16,562.7-15.4,562.4-14.8,562.4 M-14.8,561.4c-0.9,0-1.8,0.4-2.4,1.2
				c-1,1.3-0.8,3.2,0.5,4.2c0.5,0.4,1.2,0.6,1.8,0.6c0.9,0,1.8-0.4,2.4-1.2c0.5-0.6,0.7-1.4,0.6-2.2c-0.1-0.8-0.5-1.5-1.1-2
				C-13.5,561.6-14.1,561.4-14.8,561.4L-14.8,561.4z"/>
		</g>
		<line fill="none" stroke="#FFFFFF" stroke-miterlimit="10" x1="14.6" y1="584.7" x2="20.8" y2="625.1"/>
		<g>
			<path fill="#FFFFFF" d="M14.2,580.4c0.4,0,0.9,0.1,1.2,0.4c0.9,0.7,1,1.9,0.4,2.8c-0.4,0.5-1,0.8-1.6,0.8c-0.4,0-0.9-0.1-1.2-0.4
				c-0.9-0.7-1-1.9-0.4-2.8C13,580.7,13.6,580.4,14.2,580.4 M14.2,579.4c-0.9,0-1.8,0.4-2.4,1.2c-1,1.3-0.8,3.2,0.5,4.2
				c0.5,0.4,1.2,0.6,1.8,0.6c0.9,0,1.8-0.4,2.4-1.2c0.5-0.6,0.7-1.4,0.6-2.2c-0.1-0.8-0.5-1.5-1.1-2
				C15.5,579.6,14.9,579.4,14.2,579.4L14.2,579.4z"/>
		</g>
		<g>
			<path fill="#FFFFFF" d="M21.2,625.4c0.4,0,0.9,0.1,1.2,0.4c0.9,0.7,1,1.9,0.4,2.8c-0.4,0.5-1,0.8-1.6,0.8c-0.4,0-0.9-0.1-1.2-0.4
				c-0.9-0.7-1-1.9-0.4-2.8C20,625.7,20.6,625.4,21.2,625.4 M21.2,624.4c-0.9,0-1.8,0.4-2.4,1.2c-1,1.3-0.8,3.2,0.5,4.2
				c0.5,0.4,1.2,0.6,1.8,0.6c0.9,0,1.8-0.4,2.4-1.2c1-1.3,0.8-3.2-0.5-4.2C22.5,624.6,21.9,624.4,21.2,624.4L21.2,624.4z"/>
		</g>
	</g>
	<g>
		<line fill="none" stroke="#FFFFFF" stroke-miterlimit="10" x1="577" y1="22.8" x2="479.1" y2="-14.9"/>
		<line fill="none" stroke="#FFFFFF" stroke-miterlimit="10" x1="554" y1="56.5" x2="577.6" y2="26"/>
		<line fill="none" stroke="#FFFFFF" stroke-miterlimit="10" x1="550.5" y1="57.4" x2="502.2" y2="31.5"/>
		<line fill="none" stroke="#FFFFFF" stroke-miterlimit="10" x1="448.2" y1="39.4" x2="498.1" y2="31.4"/>
		<line fill="none" stroke="#FFFFFF" stroke-miterlimit="10" x1="576.9" y1="23.9" x2="502.7" y2="30.2"/>
		<line fill="none" stroke="#FFFFFF" stroke-miterlimit="10" x1="475.7" y1="-14.2" x2="446.9" y2="38"/>
		<line fill="none" stroke="#FFFFFF" stroke-miterlimit="10" x1="499" y1="28.4" x2="478" y2="-13.2"/>
		<g>
			<path fill="#FFFFFF" d="M446,37.7c0.2,0,0.3,0,0.5,0.1c1.1,0.3,1.7,1.3,1.5,2.4c-0.2,0.9-1,1.5-1.9,1.5c-0.2,0-0.3,0-0.5-0.1
				c-1.1-0.3-1.7-1.3-1.5-2.4C444.2,38.3,445.1,37.7,446,37.7 M446,36.7L446,36.7c-1.4,0-2.6,0.9-2.9,2.3c-0.2,0.8-0.1,1.6,0.3,2.3
				c0.4,0.7,1.1,1.2,1.8,1.4c0.2,0.1,0.5,0.1,0.7,0.1c1.4,0,2.6-0.9,2.9-2.3c0.4-1.6-0.6-3.2-2.2-3.6
				C446.4,36.8,446.2,36.7,446,36.7L446,36.7z"/>
		</g>
		<g>
			<path fill="#FFFFFF" d="M500.2,28.4c0.2,0,0.3,0,0.5,0.1c1.1,0.3,1.7,1.3,1.5,2.4c-0.2,0.9-1,1.5-1.9,1.5c-0.2,0-0.3,0-0.5-0.1
				c-1.1-0.3-1.7-1.3-1.5-2.4C498.5,29,499.3,28.4,500.2,28.4 M500.2,27.4L500.2,27.4c-1.4,0-2.6,0.9-2.9,2.3
				c-0.4,1.6,0.6,3.2,2.2,3.6c0.2,0.1,0.5,0.1,0.7,0.1c1.4,0,2.6-0.9,2.9-2.3c0.4-1.6-0.6-3.2-2.2-3.6
				C500.7,27.4,500.4,27.4,500.2,27.4L500.2,27.4z"/>
		</g>
		<g>
			<path fill="#FFFFFF" d="M476.6-17.9c0.2,0,0.3,0,0.5,0.1c1.1,0.3,1.7,1.3,1.5,2.4c-0.2,0.9-1,1.5-1.9,1.5c-0.2,0-0.3,0-0.5-0.1
				c-1.1-0.3-1.7-1.3-1.5-2.4C474.9-17.2,475.7-17.9,476.6-17.9 M476.6-18.9L476.6-18.9c-1.4,0-2.6,0.9-2.9,2.3
				c-0.2,0.8-0.1,1.6,0.3,2.3c0.4,0.7,1.1,1.2,1.8,1.4c0.2,0.1,0.5,0.1,0.7,0.1c1.4,0,2.6-0.9,2.9-2.3c0.2-0.8,0.1-1.6-0.3-2.3
				c-0.4-0.7-1.1-1.2-1.8-1.4C477.1-18.8,476.9-18.9,476.6-18.9L476.6-18.9z"/>
		</g>
		<g>
			<path fill="#FFFFFF" d="M552.5,56.4c0.2,0,0.3,0,0.5,0.1c1.1,0.3,1.7,1.3,1.5,2.4c-0.2,0.9-1,1.5-1.9,1.5c-0.2,0-0.3,0-0.5-0.1
				c-1.1-0.3-1.7-1.3-1.5-2.4C550.8,57,551.6,56.4,552.5,56.4 M552.5,55.4L552.5,55.4c-1.4,0-2.6,0.9-2.9,2.3
				c-0.2,0.8-0.1,1.6,0.3,2.3c0.4,0.7,1.1,1.2,1.8,1.4c0.2,0.1,0.5,0.1,0.7,0.1c1.4,0,2.6-0.9,2.9-2.3c0.4-1.6-0.6-3.2-2.2-3.6
				C553,55.5,552.8,55.4,552.5,55.4L552.5,55.4z"/>
		</g>
		<g>
			<path fill="#FFFFFF" d="M579,22c0.2,0,0.3,0,0.5,0.1c1.1,0.3,1.7,1.3,1.5,2.4c-0.2,0.9-1,1.5-1.9,1.5c-0.2,0-0.3,0-0.5-0.1
				c-1.1-0.3-1.7-1.3-1.5-2.4C577.3,22.6,578.1,22,579,22 M579,21L579,21c-1.4,0-2.6,0.9-2.9,2.3c-0.2,0.8-0.1,1.6,0.3,2.3
				s1.1,1.2,1.8,1.4c0.2,0.1,0.5,0.1,0.7,0.1c1.4,0,2.6-0.9,2.9-2.3c0.4-1.6-0.6-3.2-2.2-3.6C579.4,21,579.2,21,579,21L579,21z"/>
		</g>
	</g>
	<g>
		<line fill="none" stroke="#FFFFFF" stroke-miterlimit="10" x1="544.1" y1="533.8" x2="579.3" y2="601.9"/>
		<line fill="none" stroke="#FFFFFF" stroke-miterlimit="10" x1="501" y1="545.6" x2="540.5" y2="532.4"/>
		<line fill="none" stroke="#FFFFFF" stroke-miterlimit="10" x1="499.8" y1="548.3" x2="530" y2="593.9"/>
		<line fill="none" stroke="#FFFFFF" stroke-miterlimit="10" x1="514.5" y1="647.2" x2="530" y2="597.9"/>
		<line fill="none" stroke="#FFFFFF" stroke-miterlimit="10" x1="542.4" y1="534.2" x2="531.7" y2="593.5"/>
		<line fill="none" stroke="#FFFFFF" stroke-miterlimit="10" x1="578.6" y1="605.4" x2="515.7" y2="648.1"/>
		<line fill="none" stroke="#FFFFFF" stroke-miterlimit="10" x1="533.8" y1="596.2" x2="577.9" y2="603.7"/>
		<g>
			<path fill="#FFFFFF" d="M513.9,647.4c0.8,0,1.6,0.5,1.9,1.4c0.3,1.1-0.2,2.2-1.3,2.5c-0.2,0.1-0.4,0.1-0.6,0.1
				c-0.8,0-1.6-0.5-1.9-1.4c-0.3-1.1,0.2-2.2,1.3-2.5C513.5,647.4,513.7,647.4,513.9,647.4 M513.9,646.4c-0.3,0-0.6,0-0.9,0.1
				c-1.6,0.5-2.4,2.2-1.9,3.8c0.4,1.2,1.5,2.1,2.9,2.1c0.3,0,0.6,0,0.9-0.1c0.8-0.2,1.4-0.8,1.7-1.5s0.4-1.5,0.2-2.3
				C516.3,647.2,515.2,646.4,513.9,646.4L513.9,646.4z"/>
		</g>
		<g>
			<path fill="#FFFFFF" d="M531.3,593.8c0.8,0,1.6,0.5,1.9,1.4c0.3,1.1-0.2,2.2-1.3,2.5c-0.2,0.1-0.4,0.1-0.6,0.1
				c-0.8,0-1.6-0.5-1.9-1.4c-0.3-1.1,0.2-2.2,1.3-2.5C530.9,593.8,531.1,593.8,531.3,593.8 M531.3,592.8c-0.3,0-0.6,0-0.9,0.1
				c-1.6,0.5-2.4,2.2-1.9,3.8c0.4,1.2,1.5,2.1,2.9,2.1c0.3,0,0.6,0,0.9-0.1c0.8-0.2,1.4-0.8,1.7-1.5s0.4-1.5,0.2-2.3
				C533.7,593.6,532.6,592.8,531.3,592.8L531.3,592.8z"/>
		</g>
		<g>
			<path fill="#FFFFFF" d="M580.5,602.1c0.8,0,1.6,0.5,1.9,1.4c0.3,1.1-0.2,2.2-1.3,2.5c-0.2,0.1-0.4,0.1-0.6,0.1
				c-0.8,0-1.6-0.5-1.9-1.4c-0.3-1.1,0.2-2.2,1.3-2.5C580.1,602.1,580.3,602.1,580.5,602.1 M580.5,601.1c-0.3,0-0.6,0-0.9,0.1
				c-0.8,0.2-1.4,0.8-1.7,1.5s-0.4,1.5-0.2,2.3c0.4,1.2,1.5,2.1,2.9,2.1c0.3,0,0.6,0,0.9-0.1c0.8-0.2,1.4-0.8,1.7-1.5
				c0.4-0.7,0.4-1.5,0.2-2.3C582.9,601.9,581.8,601.1,580.5,601.1L580.5,601.1z"/>
		</g>
		<g>
			<path fill="#FFFFFF" d="M498.6,544.4c0.8,0,1.6,0.5,1.9,1.4c0.3,1.1-0.2,2.2-1.3,2.5c-0.2,0.1-0.4,0.1-0.6,0.1
				c-0.8,0-1.6-0.5-1.9-1.4c-0.3-1.1,0.2-2.2,1.3-2.5C498.2,544.5,498.4,544.4,498.6,544.4 M498.6,543.4c-0.3,0-0.6,0-0.9,0.1
				c-1.6,0.5-2.4,2.2-1.9,3.8c0.4,1.2,1.5,2.1,2.9,2.1c0.3,0,0.6,0,0.9-0.1c1.6-0.5,2.4-2.2,1.9-3.8
				C501,544.3,499.9,543.4,498.6,543.4L498.6,543.4z"/>
		</g>
		<g>
			<path fill="#FFFFFF" d="M542.7,530c0.8,0,1.6,0.5,1.9,1.4c0.3,1.1-0.2,2.2-1.3,2.5c-0.2,0.1-0.4,0.1-0.6,0.1
				c-0.8,0-1.6-0.5-1.9-1.4c-0.3-1.1,0.2-2.2,1.3-2.5C542.3,530,542.5,530,542.7,530 M542.7,529c-0.3,0-0.6,0-0.9,0.1
				c-1.6,0.5-2.4,2.2-1.9,3.8c0.4,1.2,1.5,2.1,2.9,2.1c0.3,0,0.6,0,0.9-0.1c1.6-0.5,2.4-2.2,1.9-3.8C545.2,529.8,544,529,542.7,529
				L542.7,529z"/>
		</g>
	</g>
	<g>
		<line fill="none" stroke="#FFFFFF" stroke-miterlimit="10" x1="1045.1" y1="577.5" x2="1010.4" y2="709.1"/>
		<line fill="none" stroke="#FFFFFF" stroke-miterlimit="10" x1="1001.1" y1="591.7" x2="1043.4" y2="576.2"/>
		<line fill="none" stroke="#FFFFFF" stroke-miterlimit="10" x1="998.7" y1="594.9" x2="996.1" y2="664.2"/>
		<line fill="none" stroke="#FFFFFF" stroke-miterlimit="10" x1="993.4" y1="667.2" x2="945.3" y2="678.4"/>
		<line fill="none" stroke="#FFFFFF" stroke-miterlimit="10" x1="1044.6" y1="577.4" x2="997.1" y2="664.5"/>
		<line fill="none" stroke="#FFFFFF" stroke-miterlimit="10" x1="1007.8" y1="710.2" x2="944.8" y2="680"/>
		<line fill="none" stroke="#FFFFFF" stroke-miterlimit="10" x1="996.5" y1="668.8" x2="1009" y2="708.5"/>
		<g>
			<path fill="#FFFFFF" d="M942.7,677.1c0.3,0,0.6,0.1,0.9,0.2c1,0.5,1.4,1.7,0.9,2.7c-0.4,0.7-1.1,1.1-1.8,1.1
				c-0.3,0-0.6-0.1-0.9-0.2c-1-0.5-1.4-1.7-0.9-2.7C941.3,677.5,942,677.1,942.7,677.1 M942.7,676.1c-1.1,0-2.2,0.6-2.7,1.6
				c-0.8,1.5-0.2,3.3,1.3,4c0.4,0.2,0.9,0.3,1.4,0.3c1.1,0,2.2-0.6,2.7-1.6c0.4-0.7,0.4-1.5,0.2-2.3c-0.2-0.8-0.8-1.4-1.5-1.8
				C943.7,676.2,943.2,676.1,942.7,676.1L942.7,676.1z"/>
		</g>
		<g>
			<path fill="#FFFFFF" d="M996,664.5c0.3,0,0.6,0.1,0.9,0.2c1,0.5,1.4,1.7,0.9,2.7c-0.4,0.7-1.1,1.1-1.8,1.1
				c-0.3,0-0.6-0.1-0.9-0.2c-1-0.5-1.4-1.7-0.9-2.7C994.6,664.9,995.3,664.5,996,664.5 M996,663.5c-1.1,0-2.2,0.6-2.7,1.6
				c-0.8,1.5-0.2,3.3,1.3,4c0.4,0.2,0.9,0.3,1.4,0.3c1.1,0,2.2-0.6,2.7-1.6c0.4-0.7,0.4-1.5,0.2-2.3c-0.2-0.8-0.8-1.4-1.5-1.8
				C996.9,663.6,996.5,663.5,996,663.5L996,663.5z"/>
		</g>
		<g>
			<path fill="#FFFFFF" d="M1009.9,709.2c0.3,0,0.6,0.1,0.9,0.2c1,0.5,1.4,1.7,0.9,2.7c-0.4,0.7-1.1,1.1-1.8,1.1
				c-0.3,0-0.6-0.1-0.9-0.2c-1-0.5-1.4-1.7-0.9-2.7C1008.4,709.6,1009.1,709.2,1009.9,709.2 M1009.9,708.2c-1.1,0-2.2,0.6-2.7,1.6
				c-0.4,0.7-0.4,1.5-0.2,2.3c0.2,0.8,0.8,1.4,1.5,1.8c0.4,0.2,0.9,0.3,1.4,0.3c1.1,0,2.2-0.6,2.7-1.6c0.8-1.5,0.2-3.3-1.3-4
				C1010.8,708.3,1010.3,708.2,1009.9,708.2L1009.9,708.2z"/>
		</g>
		<g>
			<path fill="#FFFFFF" d="M998.8,590.5c0.3,0,0.6,0.1,0.9,0.2c1,0.5,1.4,1.7,0.9,2.7c-0.4,0.7-1.1,1.1-1.8,1.1
				c-0.3,0-0.6-0.1-0.9-0.2c-1-0.5-1.4-1.7-0.9-2.7C997.4,590.9,998.1,590.5,998.8,590.5 M998.8,589.5c-1.1,0-2.2,0.6-2.7,1.6
				c-0.8,1.5-0.2,3.3,1.3,4c0.4,0.2,0.9,0.3,1.4,0.3c1.1,0,2.2-0.6,2.7-1.6c0.4-0.7,0.4-1.5,0.2-2.3c-0.2-0.8-0.8-1.4-1.5-1.8
				C999.8,589.6,999.3,589.5,998.8,589.5L998.8,589.5z"/>
		</g>
		<g>
			<path fill="#FFFFFF" d="M1045.2,573.5c0.3,0,0.6,0.1,0.9,0.2c1,0.5,1.4,1.7,0.9,2.7c-0.4,0.7-1.1,1.1-1.8,1.1
				c-0.3,0-0.6-0.1-0.9-0.2c-1-0.5-1.4-1.7-0.9-2.7C1043.8,573.9,1044.5,573.5,1045.2,573.5 M1045.2,572.5c-1.1,0-2.2,0.6-2.7,1.6
				c-0.8,1.5-0.2,3.3,1.3,4c0.4,0.2,0.9,0.3,1.4,0.3c1.1,0,2.2-0.6,2.7-1.6c0.8-1.5,0.2-3.3-1.3-4
				C1046.2,572.6,1045.7,572.5,1045.2,572.5L1045.2,572.5z"/>
		</g>
	</g>
	<g>
		<line fill="none" stroke="#FFFFFF" stroke-miterlimit="10" x1="-35" y1="335.4" x2="-48" y2="260.4"/>
		<line fill="none" stroke="#FFFFFF" stroke-miterlimit="10" x1="9.9" y1="337.3" x2="-32.1" y2="338.1"/>
		<line fill="none" stroke="#FFFFFF" stroke-miterlimit="10" x1="11.6" y1="334.9" x2="-3.4" y2="282.7"/>
		<line fill="none" stroke="#FFFFFF" stroke-miterlimit="10" x1="27.2" y1="236.5" x2="-2.1" y2="278.5"/>
		<line fill="none" stroke="#FFFFFF" stroke-miterlimit="10" x1="-33.2" y1="335.7" x2="-5.3" y2="282.7"/>
		<line fill="none" stroke="#FFFFFF" stroke-miterlimit="10" x1="-46.4" y1="257" x2="26.5" y2="235.1"/>
		<line fill="none" stroke="#FFFFFF" stroke-miterlimit="10" x1="-6.1" y1="279.3" x2="-45.9" y2="258.9"/>
		<g>
			<path fill="#FFFFFF" d="M28.6,232.4c1.1,0,2,0.9,2,2c0,1.1-0.9,2-2,2c0,0,0,0,0,0c-1.1,0-2-0.9-2-2
				C26.6,233.3,27.5,232.4,28.6,232.4C28.6,232.4,28.6,232.4,28.6,232.4 M28.6,231.4L28.6,231.4L28.6,231.4c-1.7,0-3,1.4-3,3
				c0,1.6,1.4,3,3,3c1.7,0,3-1.4,3-3C31.6,232.8,30.3,231.4,28.6,231.4L28.6,231.4z"/>
		</g>
		<g>
			<path fill="#FFFFFF" d="M-4.1,278.3c1.1,0,2,0.9,2,2c0,1.1-0.9,2-2,2c0,0,0,0,0,0c-1.1,0-2-0.9-2-2
				C-6.1,279.3-5.2,278.4-4.1,278.3C-4.1,278.3-4.1,278.3-4.1,278.3 M-4.1,277.3L-4.1,277.3L-4.1,277.3c-1.7,0-3,1.4-3,3
				c0,1.6,1.4,3,3,3c0.8,0,1.6-0.3,2.1-0.9c0.6-0.6,0.9-1.3,0.9-2.1C-1.1,278.7-2.4,277.3-4.1,277.3L-4.1,277.3z"/>
		</g>
		<g>
			<path fill="#FFFFFF" d="M-48.5,255.6c1.1,0,2,0.9,2,2c0,1.1-0.9,2-2,2c0,0,0,0,0,0c-1.1,0-2-0.9-2-2
				C-50.5,256.5-49.6,255.6-48.5,255.6C-48.5,255.6-48.5,255.6-48.5,255.6 M-48.5,254.6L-48.5,254.6L-48.5,254.6
				c-0.8,0-1.6,0.3-2.1,0.9c-0.6,0.6-0.9,1.3-0.9,2.1c0,1.6,1.4,3,3,3c0.8,0,1.6-0.3,2.1-0.9c0.6-0.6,0.9-1.3,0.9-2.1
				C-45.5,256-46.9,254.6-48.5,254.6L-48.5,254.6z"/>
		</g>
		<g>
			<path fill="#FFFFFF" d="M12.3,335.2c1.1,0,2,0.9,2,2c0,1.1-0.9,2-2,2c0,0,0,0,0,0c-1.1,0-2-0.9-2-2
				C10.3,336.1,11.2,335.2,12.3,335.2C12.3,335.2,12.3,335.2,12.3,335.2 M12.3,334.2L12.3,334.2L12.3,334.2c-0.8,0-1.6,0.3-2.1,0.9
				c-0.6,0.6-0.9,1.3-0.9,2.1c0,1.6,1.4,3,3,3c1.7,0,3-1.4,3-3C15.3,335.6,13.9,334.2,12.3,334.2L12.3,334.2z"/>
		</g>
		<g>
			<path fill="#FFFFFF" d="M-34.1,335.8c1.1,0,2,0.9,2,2c0,1.1-0.9,2-2,2c0,0,0,0,0,0c-1.1,0-2-0.9-2-2
				C-36.1,336.7-35.2,335.8-34.1,335.8C-34.1,335.8-34.1,335.8-34.1,335.8 M-34.1,334.8L-34.1,334.8L-34.1,334.8c-1.7,0-3,1.4-3,3
				c0,1.6,1.4,3,3,3c0.8,0,1.6-0.3,2.1-0.9c0.6-0.6,0.9-1.3,0.9-2.1C-31.1,336.1-32.5,334.8-34.1,334.8L-34.1,334.8z"/>
		</g>
	</g>
	<g>
		<line fill="none" stroke="#FFFFFF" stroke-miterlimit="10" x1="559.3" y1="777.7" x2="491.7" y2="740.8"/>
		<line fill="none" stroke="#FFFFFF" stroke-miterlimit="10" x1="588.4" y1="743.5" x2="562.9" y2="776.8"/>
		<line fill="none" stroke="#FFFFFF" stroke-miterlimit="10" x1="587.8" y1="740.9" x2="537.1" y2="719.9"/>
		<line fill="none" stroke="#FFFFFF" stroke-miterlimit="10" x1="507.4" y1="681.1" x2="534.1" y2="716.8"/>
		<line fill="none" stroke="#FFFFFF" stroke-miterlimit="10" x1="508.4" y1="679.2" x2="556.3" y2="681.2"/>
		<line fill="none" stroke="#FFFFFF" stroke-miterlimit="10" x1="536.3" y1="717.1" x2="557.6" y2="683.2"/>
		<line fill="none" stroke="#FFFFFF" stroke-miterlimit="10" x1="560.3" y1="776.4" x2="535.9" y2="720.9"/>
		<line fill="none" stroke="#FFFFFF" stroke-miterlimit="10" x1="490.2" y1="737.6" x2="505.4" y2="681.1"/>
		<line fill="none" stroke="#FFFFFF" stroke-miterlimit="10" x1="454.5" y1="713.5" x2="504" y2="680.4"/>
		<line fill="none" stroke="#FFFFFF" stroke-miterlimit="10" x1="454.6" y1="716.1" x2="487.6" y2="738.3"/>
		<line fill="none" stroke="#FFFFFF" stroke-miterlimit="10" x1="533.1" y1="719.9" x2="491.7" y2="738.8"/>
		<g>
			<path fill="#FFFFFF" d="M505.9,677.1c0.4,0,0.9,0.1,1.2,0.4c0.9,0.7,1,1.9,0.3,2.8c-0.4,0.5-1,0.8-1.6,0.8
				c-0.4,0-0.9-0.1-1.2-0.4c-0.9-0.7-1-1.9-0.3-2.8C504.7,677.3,505.3,677.1,505.9,677.1 M505.9,676.1c-0.9,0-1.8,0.4-2.4,1.1
				c-1,1.3-0.8,3.2,0.5,4.2c0.5,0.4,1.2,0.6,1.9,0.6c0.9,0,1.8-0.4,2.4-1.1c0.5-0.6,0.7-1.4,0.6-2.2c-0.1-0.8-0.5-1.5-1.1-2
				C507.2,676.3,506.6,676.1,505.9,676.1L505.9,676.1z"/>
		</g>
		<g>
			<path fill="#FFFFFF" d="M535.1,717.1c0.4,0,0.9,0.1,1.2,0.4c0.9,0.7,1,1.9,0.3,2.8c-0.4,0.5-1,0.8-1.6,0.8
				c-0.4,0-0.9-0.1-1.2-0.4c-0.9-0.7-1-1.9-0.3-2.8C533.9,717.3,534.5,717.1,535.1,717.1 M535.1,716.1c-0.9,0-1.8,0.4-2.4,1.1
				c-1,1.3-0.8,3.2,0.5,4.2c0.5,0.4,1.2,0.6,1.9,0.6c0.9,0,1.8-0.4,2.4-1.1c1-1.3,0.8-3.2-0.5-4.2
				C536.4,716.3,535.8,716.1,535.1,716.1L535.1,716.1z"/>
		</g>
		<g>
			<path fill="#FFFFFF" d="M558.8,679.3c0.4,0,0.9,0.1,1.2,0.4c0.9,0.7,1,1.9,0.3,2.8c-0.4,0.5-1,0.8-1.6,0.8
				c-0.4,0-0.9-0.1-1.2-0.4c-0.9-0.7-1-1.9-0.3-2.8C557.6,679.6,558.2,679.3,558.8,679.3 M558.8,678.3c-0.9,0-1.8,0.4-2.4,1.1
				c-1,1.3-0.8,3.2,0.5,4.2c0.5,0.4,1.2,0.6,1.9,0.6c0.9,0,1.8-0.4,2.4-1.1c0.5-0.6,0.7-1.4,0.6-2.2c-0.1-0.8-0.5-1.5-1.1-2
				C560.1,678.5,559.5,678.3,558.8,678.3L558.8,678.3z"/>
		</g>
		<g>
			<path fill="#FFFFFF" d="M489.7,737.7c0.4,0,0.9,0.1,1.2,0.4c0.9,0.7,1,1.9,0.3,2.8c-0.4,0.5-1,0.8-1.6,0.8
				c-0.4,0-0.9-0.1-1.2-0.4c-0.9-0.7-1-1.9-0.3-2.8C488.5,737.9,489.1,737.7,489.7,737.7 M489.7,736.7c-0.9,0-1.8,0.4-2.4,1.1
				c-0.5,0.6-0.7,1.4-0.6,2.2c0.1,0.8,0.5,1.5,1.1,2c0.5,0.4,1.2,0.6,1.9,0.6c0.9,0,1.8-0.4,2.4-1.1c0.5-0.6,0.7-1.4,0.6-2.2
				c-0.1-0.8-0.5-1.5-1.1-2C491,736.9,490.3,736.7,489.7,736.7L489.7,736.7z"/>
		</g>
		<g>
			<path fill="#FFFFFF" d="M452.6,712.7c0.4,0,0.9,0.1,1.2,0.4c0.9,0.7,1,1.9,0.3,2.8c-0.4,0.5-1,0.8-1.6,0.8
				c-0.4,0-0.9-0.1-1.2-0.4c-0.9-0.7-1-1.9-0.3-2.8C451.4,713,452,712.7,452.6,712.7 M452.6,711.7c-0.9,0-1.8,0.4-2.4,1.1
				c-1,1.3-0.8,3.2,0.5,4.2c0.5,0.4,1.2,0.6,1.9,0.6c0.9,0,1.8-0.4,2.4-1.1c1-1.3,0.8-3.2-0.5-4.2
				C453.9,712,453.2,711.7,452.6,711.7L452.6,711.7z"/>
		</g>
		<g>
			<path fill="#FFFFFF" d="M589.8,739.7c0.4,0,0.9,0.1,1.2,0.4c0.9,0.7,1,1.9,0.3,2.8c-0.4,0.5-1,0.8-1.6,0.8
				c-0.4,0-0.9-0.1-1.2-0.4c-0.9-0.7-1-1.9-0.3-2.8C588.6,740,589.2,739.7,589.8,739.7 M589.8,738.7c-0.9,0-1.8,0.4-2.4,1.1
				c-0.5,0.6-0.7,1.4-0.6,2.2c0.1,0.8,0.5,1.5,1.1,2c0.5,0.4,1.2,0.6,1.9,0.6c0.9,0,1.8-0.4,2.4-1.1c1-1.3,0.8-3.2-0.5-4.2
				C591.1,738.9,590.5,738.7,589.8,738.7L589.8,738.7z"/>
		</g>
		<g>
			<path fill="#FFFFFF" d="M561.3,776.4c0.4,0,0.9,0.1,1.2,0.4c0.9,0.7,1,1.9,0.3,2.8c-0.4,0.5-1,0.8-1.6,0.8
				c-0.4,0-0.9-0.1-1.2-0.4c-0.9-0.7-1-1.9-0.3-2.8C560.1,776.6,560.7,776.4,561.3,776.4 M561.3,775.4c-0.9,0-1.8,0.4-2.4,1.1
				c-0.5,0.6-0.7,1.4-0.6,2.2c0.1,0.8,0.5,1.5,1.1,2c0.5,0.4,1.2,0.6,1.9,0.6c0.9,0,1.8-0.4,2.4-1.1c0.5-0.6,0.7-1.4,0.6-2.2
				c-0.1-0.8-0.5-1.5-1.1-2C562.6,775.6,562,775.4,561.3,775.4L561.3,775.4z"/>
		</g>
	</g>
	<g>
		<line fill="none" stroke="#FFFFFF" stroke-miterlimit="10" x1="975.1" y1="10.6" x2="926.5" y2="32.4"/>
		<line fill="none" stroke="#FFFFFF" stroke-miterlimit="10" x1="967.7" y1="51.5" x2="926.7" y2="34.3"/>
		<line fill="none" stroke="#FFFFFF" stroke-miterlimit="10" x1="968.2" y1="54" x2="932.5" y2="81.8"/>
		<line fill="none" stroke="#FFFFFF" stroke-miterlimit="10" x1="924.6" y1="35.6" x2="930.3" y2="81"/>
		<line fill="none" stroke="#FFFFFF" stroke-miterlimit="10" x1="921.9" y1="33.6" x2="891" y2="36.5"/>
		<line fill="none" stroke="#FFFFFF" stroke-miterlimit="10" x1="907.9" y1="1.6" x2="889.9" y2="34.4"/>
		<line fill="none" stroke="#FFFFFF" stroke-miterlimit="10" x1="910" y1="1.3" x2="923.4" y2="31.4"/>
		<line fill="none" stroke="#FFFFFF" stroke-miterlimit="10" x1="909.1" y1="-0.7" x2="934.9" y2="-6.7"/>
		<line fill="none" stroke="#FFFFFF" stroke-miterlimit="10" x1="975.1" y1="8.8" x2="937.1" y2="-5.9"/>
		<line fill="none" stroke="#FFFFFF" stroke-miterlimit="10" x1="947.8" y1="-27" x2="934.9" y2="-6.7"/>
		<line fill="none" stroke="#FFFFFF" stroke-miterlimit="10" x1="949.2" y1="-25.1" x2="975.8" y2="7.8"/>
		<line fill="none" stroke="#FFFFFF" stroke-miterlimit="10" x1="924.9" y1="31" x2="934.3" y2="-4.4"/>
		<line fill="none" stroke="#FFFFFF" stroke-miterlimit="10" x1="890.2" y1="38.5" x2="929" y2="81.5"/>
		<line fill="none" stroke="#FFFFFF" stroke-miterlimit="10" x1="970.5" y1="50" x2="976.9" y2="12.1"/>
		<line fill="none" stroke="#FFFFFF" stroke-miterlimit="10" x1="1003.5" y1="46.8" x2="978.7" y2="11.6"/>
		<line fill="none" stroke="#FFFFFF" stroke-miterlimit="10" x1="1009.7" y1="14.4" x2="979.7" y2="10"/>
		<line fill="none" stroke="#FFFFFF" stroke-miterlimit="10" x1="1013.1" y1="12.8" x2="1025.2" y2="-9"/>
		<line fill="none" stroke="#FFFFFF" stroke-miterlimit="10" x1="1024" y1="-10" x2="979.6" y2="8.7"/>
		<line fill="none" stroke="#FFFFFF" stroke-miterlimit="10" x1="1011.6" y1="17" x2="1005.3" y2="46.5"/>
		<line fill="none" stroke="#FFFFFF" stroke-miterlimit="10" x1="1014.2" y1="15.7" x2="1040.4" y2="27.1"/>
		<line fill="none" stroke="#FFFFFF" stroke-miterlimit="10" x1="972.1" y1="52.3" x2="1002.8" y2="49"/>
		<line fill="none" stroke="#FFFFFF" stroke-miterlimit="10" x1="972.1" y1="53.7" x2="1022.3" y2="84.6"/>
		<line fill="none" stroke="#FFFFFF" stroke-miterlimit="10" x1="970.4" y1="54.8" x2="973.9" y2="78.6"/>
		<line fill="none" stroke="#FFFFFF" stroke-miterlimit="10" x1="932.7" y1="83.2" x2="972" y2="81"/>
		<line fill="none" stroke="#FFFFFF" stroke-miterlimit="10" x1="976.9" y1="81.2" x2="1021.6" y2="85.5"/>
		<line fill="none" stroke="#FFFFFF" stroke-miterlimit="10" x1="975" y1="82.9" x2="989.1" y2="116.9"/>
		<line fill="none" stroke="#FFFFFF" stroke-miterlimit="10" x1="1022.4" y1="87.6" x2="991.8" y2="117.1"/>
		<line fill="none" stroke="#FFFFFF" stroke-miterlimit="10" x1="1023.3" y1="83.8" x2="1005.9" y2="50.8"/>
		<line fill="none" stroke="#FFFFFF" stroke-miterlimit="10" x1="1040.6" y1="29.2" x2="1006.8" y2="47.7"/>
		<path fill="none" stroke="#FFFFFF" stroke-miterlimit="10" d="M953,7.8"/>
		<g>
			<path fill="#FFFFFF" d="M977.3,7.6c0.3,0,0.7,0.1,1,0.3c1,0.6,1.3,1.8,0.7,2.7c-0.4,0.6-1,1-1.7,1c-0.3,0-0.7-0.1-1-0.3
				c-1-0.6-1.3-1.8-0.7-2.7C976,8,976.6,7.6,977.3,7.6 M977.3,6.6c-1.1,0-2.1,0.6-2.6,1.5c-0.8,1.4-0.3,3.3,1.1,4.1
				c0.5,0.3,1,0.4,1.5,0.4c1.1,0,2.1-0.6,2.6-1.5c0.8-1.4,0.3-3.3-1.1-4.1C978.4,6.8,977.8,6.6,977.3,6.6L977.3,6.6z"/>
		</g>
		<g>
			<path fill="#FFFFFF" d="M1012.1,12.7c0.3,0,0.7,0.1,1,0.3c1,0.6,1.3,1.8,0.7,2.7c-0.4,0.6-1,1-1.7,1c-0.3,0-0.7-0.1-1-0.3
				c-1-0.6-1.3-1.8-0.7-2.7C1010.7,13.1,1011.4,12.7,1012.1,12.7 M1012.1,11.7c-1.1,0-2.1,0.6-2.6,1.5c-0.4,0.7-0.5,1.5-0.3,2.3
				c0.2,0.8,0.7,1.4,1.4,1.8c0.5,0.3,1,0.4,1.5,0.4c1.1,0,2.1-0.6,2.6-1.5c0.8-1.4,0.3-3.3-1.1-4.1
				C1013.1,11.9,1012.6,11.7,1012.1,11.7L1012.1,11.7z"/>
		</g>
		<g>
			<path fill="#FFFFFF" d="M1004.9,46.8c0.3,0,0.7,0.1,1,0.3c1,0.6,1.3,1.8,0.7,2.7c-0.4,0.6-1,1-1.7,1c-0.3,0-0.7-0.1-1-0.3
				c-1-0.6-1.3-1.8-0.7-2.7C1003.5,47.1,1004.2,46.8,1004.9,46.8 M1004.9,45.8c-1.1,0-2.1,0.6-2.6,1.5c-0.8,1.4-0.3,3.3,1.1,4.1
				c0.5,0.3,1,0.4,1.5,0.4c1.1,0,2.1-0.6,2.6-1.5c0.4-0.7,0.5-1.5,0.3-2.3c-0.2-0.8-0.7-1.4-1.4-1.8
				C1005.9,45.9,1005.4,45.8,1004.9,45.8L1004.9,45.8z"/>
		</g>
		<g>
			<path fill="#FFFFFF" d="M1024,83.6c0.3,0,0.7,0.1,1,0.3c1,0.6,1.3,1.8,0.7,2.7c-0.4,0.6-1,1-1.7,1c-0.3,0-0.7-0.1-1-0.3
				c-1-0.6-1.3-1.8-0.7-2.7C1022.7,84,1023.3,83.6,1024,83.6 M1024,82.6c-1.1,0-2.1,0.6-2.6,1.5c-0.4,0.7-0.5,1.5-0.3,2.3
				c0.2,0.8,0.7,1.4,1.4,1.8c0.5,0.3,1,0.4,1.5,0.4c1.1,0,2.1-0.6,2.6-1.5c0.8-1.4,0.3-3.3-1.1-4.1
				C1025.1,82.8,1024.6,82.6,1024,82.6L1024,82.6z"/>
		</g>
		<g>
			<path fill="#FFFFFF" d="M924.3,31.4c0.3,0,0.7,0.1,1,0.3c1,0.6,1.3,1.8,0.7,2.7c-0.4,0.6-1,1-1.7,1c-0.3,0-0.7-0.1-1-0.3
				c-1-0.6-1.3-1.8-0.7-2.7C922.9,31.7,923.6,31.4,924.3,31.4 M924.3,30.4c-1.1,0-2.1,0.6-2.6,1.5c-0.8,1.4-0.3,3.3,1.1,4.1
				c0.5,0.3,1,0.4,1.5,0.4c1.1,0,2.1-0.6,2.6-1.5c0.8-1.4,0.3-3.3-1.1-4.1C925.4,30.5,924.8,30.4,924.3,30.4L924.3,30.4z"/>
		</g>
		<g>
			<path fill="#FFFFFF" d="M934.9-8.7c0.3,0,0.7,0.1,1,0.3c1,0.6,1.3,1.8,0.7,2.7c-0.4,0.6-1,1-1.7,1c-0.3,0-0.7-0.1-1-0.3
				c-1-0.6-1.3-1.8-0.7-2.7C933.6-8.4,934.2-8.7,934.9-8.7 M934.9-9.7c-1.1,0-2.1,0.6-2.6,1.5c-0.8,1.4-0.3,3.3,1.1,4.1
				c0.5,0.3,1,0.4,1.5,0.4c1.1,0,2.1-0.6,2.6-1.5c0.8-1.4,0.3-3.3-1.1-4.1C936-9.6,935.4-9.7,934.9-9.7L934.9-9.7z"/>
		</g>
		<g>
			<path fill="#FFFFFF" d="M947.8-29c0.3,0,0.7,0.1,1,0.3c1,0.6,1.3,1.8,0.7,2.7c-0.4,0.6-1,1-1.7,1c-0.3,0-0.7-0.1-1-0.3
				c-1-0.6-1.3-1.8-0.7-2.7C946.4-28.6,947.1-29,947.8-29 M947.8-30c-1.1,0-2.1,0.6-2.6,1.5c-0.8,1.4-0.3,3.3,1.1,4.1
				c0.5,0.3,1,0.4,1.5,0.4c1.1,0,2.1-0.6,2.6-1.5c0.8-1.4,0.3-3.3-1.1-4.1C948.8-29.8,948.3-30,947.8-30L947.8-30z"/>
		</g>
		<g>
			<path fill="#FFFFFF" d="M970.1,50.5c0.3,0,0.7,0.1,1,0.3c1,0.6,1.3,1.8,0.7,2.7c-0.4,0.6-1,1-1.7,1c-0.3,0-0.7-0.1-1-0.3
				c-1-0.6-1.3-1.8-0.7-2.7C968.7,50.9,969.4,50.5,970.1,50.5 M970.1,49.5c-1.1,0-2.1,0.6-2.6,1.5c-0.8,1.4-0.3,3.3,1.1,4.1
				c0.5,0.3,1,0.4,1.5,0.4c1.1,0,2.1-0.6,2.6-1.5c0.8-1.4,0.3-3.3-1.1-4.1C971.2,49.7,970.6,49.5,970.1,49.5L970.1,49.5z"/>
		</g>
		<g>
			<path fill="#FFFFFF" d="M974.2,78.9c0.3,0,0.7,0.1,1,0.3c1,0.6,1.3,1.8,0.7,2.7c-0.4,0.6-1,1-1.7,1c-0.3,0-0.7-0.1-1-0.3
				c-1-0.6-1.3-1.8-0.7-2.7C972.8,79.2,973.5,78.9,974.2,78.9 M974.2,77.9c-1.1,0-2.1,0.6-2.6,1.5c-0.8,1.4-0.3,3.3,1.1,4.1
				c0.5,0.3,1,0.4,1.5,0.4c1.1,0,2.1-0.6,2.6-1.5c0.4-0.7,0.5-1.5,0.3-2.3s-0.7-1.4-1.4-1.8C975.2,78,974.7,77.9,974.2,77.9
				L974.2,77.9z"/>
		</g>
		<g>
			<path fill="#FFFFFF" d="M989.9,116.9c0.3,0,0.7,0.1,1,0.3c1,0.6,1.3,1.8,0.7,2.7c-0.4,0.6-1,1-1.7,1c-0.3,0-0.7-0.1-1-0.3
				c-1-0.6-1.3-1.8-0.7-2.7C988.5,117.3,989.2,116.9,989.9,116.9 M989.9,115.9c-1.1,0-2.1,0.6-2.6,1.5c-0.8,1.4-0.3,3.3,1.1,4.1
				c0.5,0.3,1,0.4,1.5,0.4c1.1,0,2.1-0.6,2.6-1.5c0.4-0.7,0.5-1.5,0.3-2.3c-0.2-0.8-0.7-1.4-1.4-1.8
				C990.9,116.1,990.4,115.9,989.9,115.9L989.9,115.9z"/>
		</g>
		<g>
			<path fill="#FFFFFF" d="M930.6,81.3c0.3,0,0.7,0.1,1,0.3c1,0.6,1.3,1.8,0.7,2.7c-0.4,0.6-1,1-1.7,1c-0.3,0-0.7-0.1-1-0.3
				c-1-0.6-1.3-1.8-0.7-2.7C929.2,81.7,929.9,81.3,930.6,81.3 M930.6,80.3c-1.1,0-2.1,0.6-2.6,1.5c-0.8,1.4-0.3,3.3,1.1,4.1
				c0.5,0.3,1,0.4,1.5,0.4c1.1,0,2.1-0.6,2.6-1.5c0.4-0.7,0.5-1.5,0.3-2.3s-0.7-1.4-1.4-1.8C931.6,80.4,931.1,80.3,930.6,80.3
				L930.6,80.3z"/>
		</g>
		<line fill="none" stroke="#FFFFFF" stroke-miterlimit="10" x1="833.3" y1="-3.4" x2="845.6" y2="-23"/>
		<line fill="none" stroke="#FFFFFF" stroke-miterlimit="10" x1="865.5" y1="9.8" x2="846.8" y2="-20.9"/>
		<line fill="none" stroke="#FFFFFF" stroke-miterlimit="10" x1="835.3" y1="-2.4" x2="864.7" y2="11"/>
		<line fill="none" stroke="#FFFFFF" stroke-miterlimit="10" x1="834.3" y1="-0.8" x2="852.7" y2="46.5"/>
		<line fill="none" stroke="#FFFFFF" stroke-miterlimit="10" x1="831.6" y1="-1.4" x2="814.9" y2="17.8"/>
		<line fill="none" stroke="#FFFFFF" stroke-miterlimit="10" x1="773.6" y1="-6.8" x2="811.6" y2="18.6"/>
		<line fill="none" stroke="#FFFFFF" stroke-miterlimit="10" x1="854.7" y1="46.5" x2="865.9" y2="14.5"/>
		<line fill="none" stroke="#FFFFFF" stroke-miterlimit="10" x1="855.8" y1="48.4" x2="886.6" y2="37.4"/>
		<line fill="none" stroke="#FFFFFF" stroke-miterlimit="10" x1="868.5" y1="13.9" x2="886.9" y2="34.7"/>
		<line fill="none" stroke="#FFFFFF" stroke-miterlimit="10" x1="869.1" y1="11.2" x2="906.8" y2="0"/>
		<g>
			<path fill="#FFFFFF" d="M845.6-25c0.7,0,1.3,0.3,1.7,0.9c0.6,0.9,0.3,2.2-0.6,2.8c-0.3,0.2-0.7,0.3-1.1,0.3
				c-0.7,0-1.3-0.3-1.7-0.9c-0.6-0.9-0.3-2.2,0.6-2.8C844.8-24.9,845.2-25,845.6-25 M845.6-26c-0.6,0-1.1,0.2-1.6,0.5
				c-1.4,0.9-1.8,2.7-0.9,4.1c0.6,0.9,1.5,1.4,2.5,1.4c0.6,0,1.1-0.2,1.6-0.5c0.7-0.4,1.1-1.1,1.3-1.9c0.2-0.8,0-1.6-0.4-2.3
				C847.6-25.5,846.6-26,845.6-26L845.6-26z"/>
		</g>
		<g>
			<path fill="#FFFFFF" d="M866.8,9.9c0.7,0,1.3,0.3,1.7,0.9c0.6,0.9,0.3,2.2-0.6,2.8c-0.3,0.2-0.7,0.3-1.1,0.3
				c-0.7,0-1.3-0.3-1.7-0.9c-0.6-0.9-0.3-2.2,0.6-2.8C866,10,866.4,9.9,866.8,9.9 M866.8,8.9c-0.6,0-1.1,0.2-1.6,0.5
				c-1.4,0.9-1.8,2.7-0.9,4.1c0.6,0.9,1.5,1.4,2.5,1.4c0.6,0,1.1-0.2,1.6-0.5c1.4-0.9,1.8-2.7,0.9-4.1
				C868.8,9.4,867.8,8.9,866.8,8.9L866.8,8.9z"/>
		</g>
		<g>
			<path fill="#FFFFFF" d="M853.6,46.8c0.7,0,1.3,0.3,1.7,0.9c0.6,0.9,0.3,2.2-0.6,2.8c-0.3,0.2-0.7,0.3-1.1,0.3
				c-0.7,0-1.3-0.3-1.7-0.9c-0.6-0.9-0.3-2.2,0.6-2.8C852.8,46.9,853.2,46.8,853.6,46.8 M853.6,45.8c-0.6,0-1.1,0.2-1.6,0.5
				c-0.7,0.4-1.1,1.1-1.3,1.9c-0.2,0.8,0,1.6,0.4,2.3c0.6,0.9,1.5,1.4,2.5,1.4c0.6,0,1.1-0.2,1.6-0.5c1.4-0.9,1.8-2.7,0.9-4.1
				C855.6,46.3,854.6,45.8,853.6,45.8L853.6,45.8z"/>
		</g>
		<g>
			<path fill="#FFFFFF" d="M813.6,17.8c0.7,0,1.3,0.3,1.7,0.9c0.6,0.9,0.3,2.2-0.6,2.8c-0.3,0.2-0.7,0.3-1.1,0.3
				c-0.7,0-1.3-0.3-1.7-0.9c-0.6-0.9-0.3-2.2,0.6-2.8C812.8,17.9,813.2,17.8,813.6,17.8 M813.6,16.8c-0.6,0-1.1,0.2-1.6,0.5
				c-0.7,0.4-1.1,1.1-1.3,1.9c-0.2,0.8,0,1.6,0.4,2.3c0.6,0.9,1.5,1.4,2.5,1.4c0.6,0,1.1-0.2,1.6-0.5c1.4-0.9,1.8-2.7,0.9-4.1
				C815.6,17.3,814.6,16.8,813.6,16.8L813.6,16.8z"/>
		</g>
		<g>
			<path fill="#FFFFFF" d="M833.3-5.4c0.7,0,1.3,0.3,1.7,0.9c0.6,0.9,0.3,2.2-0.6,2.8c-0.3,0.2-0.7,0.3-1.1,0.3
				c-0.7,0-1.3-0.3-1.7-0.9c-0.6-0.9-0.3-2.2,0.6-2.8C832.6-5.2,832.9-5.4,833.3-5.4 M833.3-6.4c-0.6,0-1.1,0.2-1.6,0.5
				c-1.4,0.9-1.8,2.7-0.9,4.1c0.6,0.9,1.5,1.4,2.5,1.4c0.6,0,1.1-0.2,1.6-0.5c1.4-0.9,1.8-2.7,0.9-4.1
				C835.3-5.8,834.3-6.4,833.3-6.4L833.3-6.4z"/>
		</g>
		<g>
			<path fill="#FFFFFF" d="M888.6,34.7c0.3,0,0.7,0.1,1,0.3c1,0.6,1.3,1.8,0.7,2.7c-0.4,0.6-1,1-1.7,1c-0.3,0-0.7-0.1-1-0.3
				c-1-0.6-1.3-1.8-0.7-2.7C887.3,35,887.9,34.7,888.6,34.7 M888.6,33.7c-1.1,0-2.1,0.6-2.6,1.5c-0.8,1.4-0.3,3.3,1.1,4.1
				c0.5,0.3,1,0.4,1.5,0.4c1.1,0,2.1-0.6,2.6-1.5c0.8-1.4,0.3-3.3-1.1-4.1C889.7,33.8,889.2,33.7,888.6,33.7L888.6,33.7z"/>
		</g>
		<g>
			<path fill="#FFFFFF" d="M909.1-2.7c0.3,0,0.7,0.1,1,0.3c1,0.6,1.3,1.8,0.7,2.7c-0.4,0.6-1,1-1.7,1c-0.3,0-0.7-0.1-1-0.3
				c-1-0.6-1.3-1.8-0.7-2.7C907.7-2.3,908.4-2.7,909.1-2.7 M909.1-3.7c-1.1,0-2.1,0.6-2.6,1.5c-0.8,1.4-0.3,3.3,1.1,4.1
				c0.5,0.3,1,0.4,1.5,0.4c1.1,0,2.1-0.6,2.6-1.5c0.4-0.7,0.5-1.5,0.3-2.3s-0.7-1.4-1.4-1.8C910.2-3.5,909.6-3.7,909.1-3.7
				L909.1-3.7z"/>
		</g>
	</g>
</g>
</svg>
