<?xml version="1.0" encoding="utf-8"?>
<!-- Generator: Adobe Illustrator 18.1.0, SVG Export Plug-In . SVG Version: 6.00 Build 0)  -->
<!DOCTYPE svg PUBLIC "-//W3C//DTD SVG 1.1//EN" "http://www.w3.org/Graphics/SVG/1.1/DTD/svg11.dtd">
<svg version="1.1" id="Layer_1" xmlns="http://www.w3.org/2000/svg" xmlns:xlink="http://www.w3.org/1999/xlink" x="0px" y="0px"
	 viewBox="0 0 201.2 221.8" enable-background="new 0 0 201.2 221.8" xml:space="preserve">
<g>
	<path fill="#FFFFFF" d="M99.7,127.5c0,3,1.7,4.7,5.1,4.7c2.6,0,5.3-1.2,7-3.4V122h-2.8C104.2,122,99.7,122.6,99.7,127.5z"/>
	<path fill="#FFFFFF" d="M184.2,62C156.1,40,115.2,18.1,89,8.4C35.1-11.4-5.7,2.7,0.6,61.2c6.7,61.9,19.6,97.6,35.4,135.4
		C46.6,222,73.1,228.9,96.2,214c45.7-29.5,66.2-51.1,95.6-91.2C206.6,102.5,203.9,77.4,184.2,62z M60.8,142.5
		c-6,0-10.7-1.3-14.1-2.3c-2.5-0.8-3.7-2.3-3-5.1l0.5-2.3c0.6-2.7,2.5-3.4,4.9-2.7c1.7,0.4,6.3,2,11.7,2c5.9,0,8.3-3.1,8.3-7.3
		c0-11.8-25.1-7.4-25.1-28.2c0-10.8,9-17,21-17c5.6,0,9.4,1.2,11.6,1.9c2.3,0.8,3.7,2.7,2.8,5.3l-0.6,1.9c-0.8,2.3-2.8,3.4-5.3,2.6
		c-2-0.6-4.7-1.3-8.4-1.3c-5.2,0-7.8,2.6-7.8,6.6c0,10.2,25.1,7.6,25.1,28.2C82.3,135.4,73.6,142.5,60.8,142.5z M124.1,137.2
		c0,2.5-1.4,4.2-3.9,4.2h-2.4c-2.5,0-3.9-0.7-4.3-3.4l-0.1-0.7c-2.8,3.5-6.2,5.2-10.9,5.2c-9,0-15.1-5.5-15.1-14.9
		c0-10.5,9.2-14.3,20.8-14.3h3.7v-0.8c0-4.8-1.5-7.4-6.7-7.4c-4.8,0-7.7,0.9-8.4,1c-2.6,0.7-4.3-0.3-5-2.7l-0.5-1.9
		c-0.7-2.6,0.8-4.4,3.1-5.1c1.6-0.4,5.3-1.6,10.8-1.6c12.3,0,18.9,7.3,18.9,17.2V137.2z M144.5,136.5l-0.8,2.9
		c-0.4,1.7-1.5,3.2-4.6,2.7c-4.5-1-8.8-3.5-8.8-11V82.4c0-2.5,1.7-4.2,4.2-4.2h3.8c2.5,0,4.2,1.7,4.2,4.2v47.4
		c0,1.6,0.3,2.3,0.8,2.8C144.5,133.3,145,134.7,144.5,136.5z"/>
</g>
</svg>
